<svg xmlns="http://www.w3.org/2000/svg" viewBox="0 0 92.95 19.43"><defs><style>.cls-1{fill:#0a1a5d;}</style></defs><title>comstor</title><g id="Layer_2" data-name="Layer 2"><g id="Westcon-Comstor"><path class="cls-1" d="M21.73,5c3.85,0,6.79,2.76,6.79,7.32,0,4-2.49,7.13-6.79,7.13S15,16.24,15,12.28C15,7.72,17.91,5,21.73,5m0,11.66c2.59,0,3.27-2.47,3.27-4.77,0-2.12-1.06-4.1-3.27-4.1s-3.24,2-3.24,4.1c0,2.28.68,4.77,3.24,4.77"/><path class="cls-1" d="M30.41,5.57h3.14V7.5h.05a4.49,4.49,0,0,1,3.85-2.25,3.76,3.76,0,0,1,3.82,2.44,4.4,4.4,0,0,1,4-2.44c3.19,0,4.1,2.33,4.1,5.41v8.71H46V11.15C46,9.86,46,8,44.11,8c-2.24,0-2.52,2.84-2.52,4.64v6.7H38.22V11.15c0-1.29,0-3.11-1.94-3.11-2.24,0-2.52,2.84-2.52,4.64v6.7H30.41V5.57"/><path class="cls-1" d="M59.91,8.18a7.81,7.81,0,0,0-3-.59c-.91,0-2,.35-2,1.53,0,2.2,5.86.8,5.86,5.79,0,3.22-2.69,4.5-5.43,4.5a14.12,14.12,0,0,1-3.82-.59l.2-2.95a7.06,7.06,0,0,0,3.32.91c.85,0,2.21-.35,2.21-1.69,0-2.71-5.86-.86-5.86-5.84,0-3,2.44-4.29,5.08-4.29a14.54,14.54,0,0,1,3.67.51l-.23,2.71"/><path class="cls-1" d="M62.49,7.81V1.44L65.86.29v4.9h3V7.81h-3v6.43c0,1.18.3,2.28,1.58,2.28A2.84,2.84,0,0,0,69,16.15l.1,2.84a8.37,8.37,0,0,1-2.49.32c-2.64,0-4.1-1.74-4.1-4.48v-7"/><path class="cls-1" d="M76.87,5c3.85,0,6.79,2.76,6.79,7.32,0,4-2.49,7.13-6.79,7.13s-6.76-3.16-6.76-7.13C70.1,7.72,73,5,76.87,5m0,11.66c2.59,0,3.27-2.47,3.27-4.77,0-2.12-1.05-4.1-3.27-4.1s-3.24,2-3.24,4.1c0,2.28.68,4.77,3.24,4.77"/><path class="cls-1" d="M85.34,5.57h3V8.71h0c.15-1.29,1.53-3.46,3.55-3.46a3.37,3.37,0,0,1,1,.11V9a3.19,3.19,0,0,0-1.51-.3c-2.74,0-2.74,3.64-2.74,5.63v5.06H85.34V5.57"/><path class="cls-1" d="M13.86,18.83a17.3,17.3,0,0,1-4.07.59C4,19.43,0,16.38,0,10S3.73,0,9.8,0a11.27,11.27,0,0,1,4,.78L13.58,4A7.08,7.08,0,0,0,9.72,3c-3.68,0-6,3-6,6.81S6,16.47,9.8,16.47a9.52,9.52,0,0,0,3.91-.78l.15,3.15"/></g></g></svg>
