<svg xmlns="http://www.w3.org/2000/svg" viewBox="0 0 96.7 19.1"><defs><style>.cls-1{fill:#0a1a5d;}</style></defs><title>westcon</title><g id="Layer_2" data-name="Layer 2"><g id="Westcon-Comstor"><path class="cls-1" d="M47.54,7.8a8,8,0,0,0-3-.59c-.91,0-2,.35-2,1.52,0,2.19,5.9.8,5.9,5.76,0,3.2-2.71,4.48-5.47,4.48a14.42,14.42,0,0,1-3.85-.59l.2-2.93a7.16,7.16,0,0,0,3.34.91c.86,0,2.23-.35,2.23-1.68,0-2.69-5.9-.85-5.9-5.81,0-3,2.46-4.26,5.12-4.26a14.91,14.91,0,0,1,3.7.51L47.54,7.8"/><path class="cls-1" d="M50.66,7.53V1.15L54.06,0V4.92h3V7.53h-3v6.4c0,1.17.3,2.27,1.6,2.27a2.91,2.91,0,0,0,1.55-.37l.1,2.83a8.55,8.55,0,0,1-2.51.32c-2.66,0-4.13-1.73-4.13-4.45v-7"/><path class="cls-1" d="M67.71,7.88a4.87,4.87,0,0,0-2.31-.51C63.3,7.37,62,9.13,62,11.71s1.14,4.48,3.52,4.48a7,7,0,0,0,2.61-.64l.15,3a10.45,10.45,0,0,1-3.4.46c-4.28,0-6.44-3.07-6.44-7.25,0-4,2.23-7.12,6.31-7.12A10.56,10.56,0,0,1,68,5l-.3,2.83"/><path class="cls-1" d="M76,4.6c3.88,0,6.84,2.74,6.84,7.28C82.82,15.82,80.31,19,76,19s-6.81-3.15-6.81-7.09c0-4.53,3-7.28,6.81-7.28m0,11.59c2.61,0,3.29-2.45,3.29-4.74,0-2.11-1.06-4.08-3.29-4.08s-3.27,2-3.27,4.08c0,2.26.68,4.74,3.27,4.74"/><path class="cls-1" d="M84.72,5.2h3.21V7.07H88a4.8,4.8,0,0,1,4.28-2.19c3.09,0,4.43,2.29,4.43,5.38v8.66h-3.4V11.6c0-1.68,0-3.95-2.2-3.95-2.46,0-3,2.8-3,4.56v6.72H84.72V5.2"/><path class="cls-1" d="M36.31,17.88A8.77,8.77,0,0,1,31.77,19C27.47,19,25,16.37,25,11.87c0-4,2-7.25,6.06-7.25,4.84,0,6.21,3.49,6.21,8.29h-9a3.48,3.48,0,0,0,3.73,3.46A9,9,0,0,0,36.39,15l-.09,2.89M34,10.45c-.1-1.73-.86-3.22-2.76-3.22s-2.86,1.39-3,3.22Z"/><polygon class="cls-1" points="0 0.27 3.77 0.27 7.1 15.33 7.16 15.33 10.21 0.27 15.08 0.27 18.23 15.33 18.29 15.33 21.65 0.27 25.13 0.27 20.47 19.1 15.85 19.1 12.62 4.05 12.57 4.05 9.39 19.1 4.74 19.1 0 0.27"/></g></g></svg>
