<?xml version="1.0" standalone="no"?>
<!DOCTYPE svg PUBLIC "-//W3C//DTD SVG 1.1//EN" "http://www.w3.org/Graphics/SVG/1.1/DTD/svg11.dtd" >
<svg xmlns="http://www.w3.org/2000/svg" xmlns:xlink="http://www.w3.org/1999/xlink" version="1.1">
<metadata></metadata>
<defs>
<font id="wonderwestbold" horiz-adv-x="1280" >
<font-face units-per-em="2048" ascent="1638" descent="-410" />
<missing-glyph horiz-adv-x="460" />
<glyph horiz-adv-x="0" />
<glyph horiz-adv-x="682" />
<glyph unicode=" "  horiz-adv-x="460" />
<glyph unicode="&#x09;" horiz-adv-x="460" />
<glyph unicode="&#xa0;" horiz-adv-x="460" />
<glyph unicode="!" horiz-adv-x="512" d="M129 0v254h254v-254h-254zM129 1536h254l-41 -1126h-172z" />
<glyph unicode="&#x22;" horiz-adv-x="985" d="M180 918v512h250v-512h-250zM555 918v512h250v-512h-250z" />
<glyph unicode="#" horiz-adv-x="1454" d="M63 432l95 213h229l76 203h-248l66 201h258l151 385h193l-148 -385h234l147 385h193l-148 -385h228l-70 -201h-234l-75 -203h256l-99 -213h-239l-172 -455h-197l172 455h-229l-176 -455h-193l172 455h-242zM580 645h233l80 203h-234z" />
<glyph unicode="$" horiz-adv-x="1073" d="M82 969q3 120 90 213q90 96 285 114l-2 236h157l-2 -236q93 -6 185 -29t141 -50l-23 -232q-204 107 -352 107q-229 0 -229 -99q0 -91 235 -147q48 -11 85.5 -21.5t85 -27.5t82.5 -36t71 -47t59 -60t37 -75.5t14 -93.5q0 -103 -69 -192q-39 -50 -123 -84.5t-199 -44.5 l-2 -230h-153l2 228q-243 12 -359 82l35 260q138 -129 385 -129q209 0 209 108q0 100 -227 164q-46 13 -70.5 20.5t-70 22.5t-72 28t-63.5 32.5t-59 41t-43 48.5t-30.5 59.5t-9.5 69.5z" />
<glyph unicode="%" horiz-adv-x="1724" d="M70 1057q0 172 89.5 278.5t227.5 106.5q136 0 221.5 -101.5t85.5 -267.5q0 -176 -87 -281.5t-230 -105.5q-139 0 -223 101.5t-84 269.5zM233 1057q0 -109 39 -164t107 -55q153 0 153 235q0 106 -41.5 163.5t-105.5 57.5q-66 0 -109 -61.5t-43 -175.5zM301 -25l864 1459 h213l-864 -1459h-213zM1032 352q0 171 90 278t228 107q136 0 221.5 -101t85.5 -267q0 -176 -87.5 -281.5t-230.5 -105.5q-139 0 -223 101.5t-84 268.5zM1196 352q0 -109 38.5 -164t106.5 -55q154 0 154 236q0 106 -41.5 163.5t-105.5 57.5q-66 0 -109 -62t-43 -176z" />
<glyph unicode="&#x26;" horiz-adv-x="1284" d="M66 344q0 123 62.5 220t186.5 188q-153 194 -153 350q0 154 123 246q124 92 293 92q152 0 238.5 -79t86.5 -214q0 -131 -94 -225q-59 -59 -88 -80q-61 -47 -109 -82l287 -328q18 100 21 289h243q0 -288 -100 -475l215 -246h-295l-63 70q-149 -119 -377 -119 q-239 0 -357 112q-120 114 -120 281zM330 367q0 -101 60 -161.5t188 -60.5q134 0 213 70l-355 399q-106 -112 -106 -247zM412 1092q0 -88 94 -207q174 122 174 233q0 119 -115 119q-69 0 -111 -38.5t-42 -106.5z" />
<glyph unicode="'" horiz-adv-x="569" d="M160 918v512h250v-512h-250z" />
<glyph unicode="(" horiz-adv-x="567" d="M84 629q0 313 51 516q50 203 156 391h231q-231 -408 -231 -907q0 -500 231 -908h-231q-105 186 -156 390q-51 205 -51 518z" />
<glyph unicode=")" horiz-adv-x="567" d="M45 -279q231 408 231 908q0 499 -231 907h231q102 -181 154 -391q53 -210 53 -516q0 -304 -53 -518q-53 -210 -154 -390h-231z" />
<glyph unicode="*" horiz-adv-x="913" d="M63 1264l97 168l272 -220l-72 322h193l-74 -322l275 220l96 -168l-326 -103l246 -184l-137 -133l-172 280l-176 -286l-138 133l248 186z" />
<glyph unicode="+" horiz-adv-x="937" d="M90 471v193h283v262h192v-262h283v-193h-283v-262h-192v262h-283z" />
<glyph unicode="," horiz-adv-x="569" d="M47 -225l131 512h297l-186 -512h-242z" />
<glyph unicode="-" horiz-adv-x="856" d="M111 471v193h634v-193h-634z" />
<glyph unicode="." horiz-adv-x="475" d="M111 0v266h254v-266h-254z" />
<glyph unicode="/" horiz-adv-x="1128" d="M39 -174l747 1608h275l-748 -1608h-274z" />
<glyph unicode="0" horiz-adv-x="1445" d="M121 694q0 338 176 553t438 215q254 0 422 -207q168 -204 168 -526q0 -344 -168 -551q-171 -207 -446 -207q-265 0 -428 199q-162 198 -162 524zM383 694q0 -240 89 -363.5t243 -123.5q165 0 258.5 131.5t93.5 390.5q0 237 -98 371q-98 131 -238 131q-143 0 -246 -139 q-102 -138 -102 -398z" />
<glyph unicode="1" horiz-adv-x="755" d="M92 1210q71 16 152 82q86 73 112 142h201v-1434h-262v1063q-86 -59 -180 -74z" />
<glyph unicode="2" horiz-adv-x="1083" d="M90 0q258 373 383 586q140 237 164 307q31 85 31 145q0 97 -52.5 151t-146.5 54q-185 0 -330 -219l-33 236q43 74 148 137q112 65 268 65q205 0 299 -116q94 -113 94 -269q0 -140 -88 -329q-82 -182 -286 -494h426v-254h-877z" />
<glyph unicode="3" horiz-adv-x="1103" d="M74 82l63 242q44 -43 134 -72t178 -29q276 0 276 209q0 120 -60 183t-202 63h-184l22 203h94q273 0 273 188q0 172 -211 172q-176 0 -252 -70l-41 197q39 39 129 66.5t194 27.5q128 0 223 -36t140 -99q82 -111 82 -246q0 -185 -137 -286q188 -114 188 -351 q0 -224 -156 -350q-153 -123 -368 -123q-126 0 -242 39q-119 41 -143 72z" />
<glyph unicode="4" horiz-adv-x="1189" d="M20 389l660 1045h219v-832h174v-213h-174v-389h-262v389h-617zM377 602h260v430z" />
<glyph unicode="5" horiz-adv-x="1099" d="M100 88l62 238q119 -107 305 -107q125 0 200.5 61t75.5 183q0 102 -73 160q-72 57 -277 57h-219l90 754h658l-27 -254h-434l-35 -281q300 -5 435.5 -106t135.5 -320q0 -237 -153 -369q-152 -131 -369 -131q-132 0 -248 41q-120 41 -127 74z" />
<glyph unicode="6" horiz-adv-x="1150" d="M119 518q0 190 67 367q70 177 166 293q98 117 202 186.5t179 69.5l172 -103q-62 0 -178 -84q-115 -84 -217 -215q-99 -129 -115 -250q65 80 238 80q195 0 313.5 -109.5t118.5 -303.5q0 -196 -139 -338q-140 -140 -361 -140q-210 0 -328 136t-118 411zM373 416 q0 -101 67 -156q66 -55 152 -55q101 0 166 71.5t65 176.5q0 80 -56 138t-151 58q-112 0 -177.5 -60t-65.5 -173z" />
<glyph unicode="7" horiz-adv-x="1044" d="M88 1180v254h942l-598 -1434h-274l491 1180h-561z" />
<glyph unicode="8" horiz-adv-x="1232" d="M115 379q0 229 221 393q-141 114 -141 328q0 160 100 260q102 102 330 102q209 0 312 -89.5t103 -242.5q0 -192 -176 -339q117 -55 185.5 -153.5t68.5 -219.5q0 -174 -135 -312q-132 -135 -387 -135q-236 0 -358 119q-123 120 -123 289zM365 399q0 -104 64 -161.5 t177 -57.5q118 0 186 62.5t68 167.5t-65 175.5t-172 94.5q-110 -18 -184 -93.5t-74 -187.5zM424 1075q0 -156 180 -205q195 53 195 215q0 79 -46 125.5t-139 46.5q-96 0 -143 -48.5t-47 -133.5z" />
<glyph unicode="9" horiz-adv-x="1155" d="M86 979q0 205 137 342q138 141 363 141q209 0 328.5 -136.5t119.5 -407.5q0 -185 -59 -361t-154 -299q-92 -119 -199 -188.5t-204 -69.5l-166 102q68 0 184 72q113 68 219 205q104 131 113 270q-32 -37 -121 -59q-87 -19 -129 -19q-198 0 -315 107t-117 301zM342 989 q0 -89 52.5 -147t148.5 -58q109 0 176 61t67 171q0 106 -61 159.5t-154 53.5q-102 0 -165.5 -71t-63.5 -169z" />
<glyph unicode=":" horiz-adv-x="475" d="M111 0v266h254v-266h-254zM111 635v266h254v-266h-254z" />
<glyph unicode=";" horiz-adv-x="569" d="M47 -225l131 512h297l-186 -512h-242zM141 768v287h287v-287h-287z" />
<glyph unicode="&#x3c;" horiz-adv-x="1228" d="M94 430v176l1041 447v-209l-764 -326l764 -325v-209z" />
<glyph unicode="=" horiz-adv-x="1011" d="M127 307v193h758v-193h-758zM127 635v192h758v-192h-758z" />
<glyph unicode="&#x3e;" horiz-adv-x="1228" d="M94 -16v209l764 325l-764 326v209l1041 -447v-176z" />
<glyph unicode="?" horiz-adv-x="905" d="M59 1391q100 145 328 145q202 0 315 -125q115 -124 115 -264q0 -72 -33 -139q-40 -82 -79 -136l-93 -129q-112 -156 -112 -307v-26h-172q-6 91 -6 108q0 80 37 168.5t90 157.5q55 70 92 151t37 150q0 92 -56 141t-151 49q-159 0 -254 -133zM287 0v254h254v-254h-254z" />
<glyph unicode="@" horiz-adv-x="1638" d="M76 715q0 151 60 287t163.5 235.5t251.5 158t317 58.5q102 0 199.5 -22t187.5 -69.5t158.5 -116.5t109 -170.5t40.5 -223.5q0 -119 -41 -219.5t-101.5 -163t-133.5 -106.5t-134 -62t-106 -18q-46 0 -78 27.5t-33 78.5h-4q-95 -106 -207 -106q-130 0 -223.5 96t-93.5 242 q0 203 123.5 348t297.5 145q151 0 238 -131l23 64l174 34l-113 -497q-14 -54 -14 -70q0 -31 30 -31q88 0 160 94t72 269q0 96 -32.5 171.5t-84 121t-123.5 75.5t-142.5 41t-148.5 11q-125 0 -234 -45.5t-184 -121t-118 -176t-43 -208.5q0 -238 150 -394.5t380 -156.5 q320 0 473 129h174q-217 -318 -647 -318q-109 0 -214 29t-201 90t-169 146.5t-116 208.5t-43 266zM621 651q0 -74 41.5 -121t111.5 -47q95 0 161 83t66 184q0 73 -41.5 118t-109.5 45q-97 0 -163 -82t-66 -180z" />
<glyph unicode="A" d="M6 0l510 1434h248l510 -1434h-273l-122 346h-478l-122 -346h-273zM492 600h296l-149 420z" />
<glyph unicode="B" horiz-adv-x="1282" d="M158 0v1434h387q213 0 334 -39q106 -33 160.5 -112.5t54.5 -217.5q0 -196 -121 -299q129 -50 189.5 -131t60.5 -213q0 -117 -44.5 -204t-123.5 -132q-146 -86 -344 -86h-553zM420 223h258q137 0 205.5 50t68.5 163q0 215 -260 215h-272v-428zM420 858h256q76 0 125 41 t49 127q0 101 -48.5 142.5t-150.5 41.5h-231v-352z" />
<glyph unicode="C" horiz-adv-x="1247" d="M72 717q0 333 196 538q201 207 510 207q232 0 408 -84l-29 -250q-204 82 -379 82q-199 0 -309.5 -133.5t-110.5 -359.5q0 -227 110.5 -360.5t309.5 -133.5q175 0 379 82l29 -250q-176 -84 -408 -84q-311 0 -510 205q-196 205 -196 541z" />
<glyph unicode="D" horiz-adv-x="1474" d="M158 0v1434h536q314 0 510 -193q197 -194 197 -524t-197 -524q-196 -193 -510 -193h-536zM420 252h274q203 0 311.5 122t108.5 343t-108.5 343t-311.5 122h-274v-930z" />
<glyph unicode="E" horiz-adv-x="1163" d="M158 0v1434h917v-254h-649v-306h504v-253h-504v-367h670v-254h-938z" />
<glyph unicode="F" horiz-adv-x="1075" d="M158 0v1434h882v-254h-620v-306h479v-253h-479v-621h-262z" />
<glyph unicode="G" horiz-adv-x="1359" d="M72 719q0 334 198 538q199 205 516 205q109 0 232 -24q118 -20 199 -60l-29 -250q-198 82 -395 82q-211 0 -323 -131t-112 -356q0 -231 116.5 -365.5t330.5 -134.5q78 0 196 23v256h-157v217h420v-639q-66 -40 -224 -78q-149 -31 -268 -31q-305 0 -504 205 q-196 205 -196 543z" />
<glyph unicode="H" horiz-adv-x="1515" d="M158 0v1434h262v-560h676v560h262v-1434h-262v621h-676v-621h-262z" />
<glyph unicode="I" horiz-adv-x="577" d="M158 0v1434h262v-1434h-262z" />
<glyph unicode="J" horiz-adv-x="577" d="M-6 -156h55q59 0 84 38.5t25 125.5v1426h262v-1483q0 -148 -86 -225.5t-246 -77.5h-74z" />
<glyph unicode="K" horiz-adv-x="1271" d="M158 0v1434h262v-1434h-262zM471 758l500 676h295l-500 -676l500 -758h-295z" />
<glyph unicode="L" horiz-adv-x="1024" d="M158 0v1434h262v-1180h590v-254h-852z" />
<glyph unicode="M" horiz-adv-x="1933" d="M166 0v1430h459l340 -1084h4l340 1084h458v-1430h-274v1180h-4l-385 -1180h-275l-385 1180l-4 -4v-1176h-274z" />
<glyph unicode="N" horiz-adv-x="1447" d="M158 0v1434h258l612 -926v926h262v-1434h-215l-655 983v-983h-262z" />
<glyph unicode="O" horiz-adv-x="1556" d="M72 717q0 333 196 538q201 207 510 207q310 0 508 -207q199 -205 199 -538q0 -336 -199 -541q-196 -205 -508 -205q-311 0 -510 205q-196 205 -196 541zM358 717q0 -223 109 -359q108 -135 311 -135q204 0 312 135t108 359q0 223 -108 358t-312 135q-203 0 -311 -135 q-109 -136 -109 -358z" />
<glyph unicode="P" horiz-adv-x="1220" d="M158 0v1434h405q167 0 269 -17t184 -63q85 -47 123.5 -137t38.5 -238q0 -142 -47.5 -248t-129.5 -162q-144 -98 -325 -98h-256v-471h-262zM420 717h221q147 0 208.5 59t61.5 201q0 130 -59.5 183.5t-216.5 53.5h-215v-497z" />
<glyph unicode="Q" horiz-adv-x="1556" d="M72 717q0 333 196 538q201 207 510 207q310 0 508 -207q199 -205 199 -538q0 -256 -127 -451l127 -104l-152 -182l-141 116q-171 -125 -414 -125q-311 0 -510 205q-196 205 -196 541zM358 717q0 -227 110.5 -360.5t309.5 -133.5q116 0 205 47l-172 146l152 182l180 -152 q55 113 55 271q0 223 -108 358t-312 135q-203 0 -311 -135q-109 -136 -109 -358z" />
<glyph unicode="R" horiz-adv-x="1282" d="M158 0v1434h524q494 0 494 -414q0 -148 -60.5 -245t-183.5 -173l323 -602h-272l-297 532h-266v-532h-262zM420 778h192q160 0 224.5 54.5t64.5 168.5q0 112 -61.5 162.5t-216.5 50.5h-203v-436z" />
<glyph unicode="S" horiz-adv-x="1187" d="M78 1032v7q0 159 127 292q125 131 391 131q136 0 264 -35q128 -34 193 -75l-27 -269q-237 129 -420 129q-114 0 -188 -37t-74 -114q0 -74 65 -116.5t224 -90.5q58 -16 115 -37l110 -43q46 -18 109 -61q71 -53 118 -136q43 -76 43 -172v-16q-2 -65 -13 -113t-44 -104 q-120 -201 -498 -201q-147 0 -275.5 30t-199.5 75l31 299q70 -67 189 -109.5t262 -42.5q256 0 256 156q0 73 -66 135q-23 23 -78 47q-60 29 -86 37l-104 37l-88 31l-82 34q-56 24 -83.5 40.5t-66.5 47.5q-53 45 -77 101.5t-27 142.5z" />
<glyph unicode="T" horiz-adv-x="1134" d="M31 1180v254h1073v-254h-406v-1180h-262v1180h-405z" />
<glyph unicode="U" horiz-adv-x="1470" d="M141 614v820h262v-732q0 -240 75 -359.5t257 -119.5t257 119.5t75 359.5v732h262v-820q0 -305 -151.5 -474t-442.5 -169t-442.5 169t-151.5 474z" />
<glyph unicode="V" horiz-adv-x="1345" d="M0 1434h272l402 -1088l395 1088h270l-503 -1434h-320z" />
<glyph unicode="W" horiz-adv-x="2048" d="M20 1430h302l266 -1143h4l244 1143h389l252 -1143h4l268 1143h279l-373 -1430h-369l-258 1143h-4l-254 -1143h-371z" />
<glyph unicode="X" horiz-adv-x="1284" d="M-2 0l506 715l-484 719h304l331 -504l303 504h302l-472 -691l500 -743h-303l-348 526l-338 -526h-301z" />
<glyph unicode="Y" horiz-adv-x="1224" d="M-14 1434h278l348 -566l349 566h278l-496 -799v-635h-262v635z" />
<glyph unicode="Z" horiz-adv-x="1122" d="M16 0l660 1180h-567v254h999l-659 -1180h567v-254h-1000z" />
<glyph unicode="[" horiz-adv-x="686" d="M137 -279v1815h527v-223h-295v-1368h295v-224h-527z" />
<glyph unicode="\" horiz-adv-x="1128" d="M68 1434h274l748 -1608h-275z" />
<glyph unicode="]" horiz-adv-x="696" d="M33 -25h295v1307h-295v254h526v-1815h-526v254z" />
<glyph unicode="^" horiz-adv-x="1228" d="M135 641l383 789h193l383 -789h-213l-267 573l-266 -573h-213z" />
<glyph unicode="_" horiz-adv-x="1142" d="M-2 -74h1147v-192h-1147v192z" />
<glyph unicode="`" horiz-adv-x="620" d="M119 1323v213l383 -186v-152z" />
<glyph unicode="a" horiz-adv-x="1019" d="M43 287q0 100 58.5 175t158.5 113q190 75 358 78q-5 91 -46.5 129.5t-137.5 38.5q-121 0 -280 -78l-23 207q191 90 373 90q370 0 370 -411v-277q0 -106 17 -137q15 -27 74 -27h32l-22 -208h-92q-167 0 -230 118q-106 -118 -313 -118q-130 0 -213.5 84t-83.5 223zM309 297 q0 -123 137 -123q98 0 175 74v233q-122 -6 -218 -53q-94 -46 -94 -131z" />
<glyph unicode="b" horiz-adv-x="1169" d="M117 0v1536h254v-563q101 67 239 67q237 0 369 -153q133 -151 133 -377q0 -225 -133 -379q-133 -151 -369 -151q-137 0 -252 77l-4 -57h-237zM358 510q0 -152 60 -237t176 -85q120 0 189 87t69 235q0 147 -68.5 234t-189.5 87q-116 0 -176 -84.5t-60 -236.5z" />
<glyph unicode="c" horiz-adv-x="917" d="M57 510q0 230 131 379q133 151 367 151q189 0 307 -75l-22 -217q-127 83 -265 83q-121 0 -189.5 -87t-68.5 -234q0 -148 69 -235t189 -87q137 0 265 84l22 -217q-118 -75 -307 -75q-234 0 -367 151q-131 149 -131 379z" />
<glyph unicode="d" horiz-adv-x="1169" d="M57 510q0 226 133 377q132 153 369 153q139 0 240 -67v563h254v-1536h-240l-4 57q-115 -77 -250 -77q-236 0 -369 151q-133 154 -133 379zM317 510q0 -148 69 -235t189 -87q116 0 176 85t60 237t-60 236.5t-176 84.5q-121 0 -189.5 -87t-68.5 -234z" />
<glyph unicode="e" horiz-adv-x="1054" d="M57 510q0 225 131 377q132 153 361 153q198 0 323 -122q127 -121 127 -322q0 -57 -16 -139h-661q20 -129 105 -199t200 -70q68 0 158 24t157 60l12 -215q-148 -77 -342 -77q-266 0 -411 151q-144 150 -144 379zM328 629h413q0 85 -47.5 143.5t-136.5 58.5 q-91 0 -149.5 -53.5t-79.5 -148.5z" />
<glyph unicode="f" horiz-adv-x="696" d="M119 0v1268q0 116 66 192t180 76q75 0 231 -12l-23 -211q-58 10 -108 10q-27 0 -45 -9.5t-27.5 -21.5t-14 -36t-5 -39t-0.5 -45v-9v-139h225v-209h-225v-815h-254z" />
<glyph unicode="g" horiz-adv-x="1251" d="M74 532q0 79 16 155t51 147.5t85.5 125.5t126.5 86.5t167 32.5q218 0 324 -168h4v144h262v-953q0 -91 -15 -168.5t-54 -151t-100.5 -124.5t-160.5 -82t-227 -31q-194 0 -365 72l23 233q68 -36 157 -64t150 -28q63 0 113 14t83 35t56.5 55.5t36 67t19.5 78.5t8.5 79.5 t1.5 80.5h-5q-41 -72 -129 -120t-198 -48q-91 0 -164 28.5t-122 77t-82 117t-47.5 145.5t-14.5 164zM360 532q0 -76 24.5 -146.5t79.5 -121.5t130 -51q62 0 110 26t76 71.5t42 103t14 125.5q0 144 -58 235.5t-172 91.5q-67 0 -116.5 -29t-76.5 -78t-40 -105.5t-13 -121.5z " />
<glyph unicode="h" horiz-adv-x="1128" d="M117 0v1536h254v-565q106 69 213 69q436 0 436 -489v-551h-254v551q0 143 -49 211.5t-154 68.5q-116 0 -192 -88v-743h-254z" />
<glyph unicode="i" horiz-adv-x="491" d="M119 0v1024h254v-1024h-254zM119 1180v254h254v-254h-254z" />
<glyph unicode="j" horiz-adv-x="491" d="M-4 -287q83 0 102 25q21 21 21 139v1147h254v-1251q0 -122 -67.5 -195.5t-194.5 -73.5h-93zM119 1180v254h254v-254h-254z" />
<glyph unicode="k" horiz-adv-x="993" d="M117 0v1536h254v-932l325 420h287l-375 -492l375 -532h-287l-325 455v-455h-254z" />
<glyph unicode="l" horiz-adv-x="569" d="M147 0v1413h275v-1413h-275z" />
<glyph unicode="m" horiz-adv-x="1773" d="M119 0v1024h209l14 -80q119 96 262 96q96 0 180 -40.5t134 -114.5q33 62 126 108.5t213 46.5q197 0 302.5 -131t105.5 -358v-551h-254v551q0 148 -43.5 214t-146.5 66q-110 0 -156.5 -50t-46.5 -148v-633h-252v551q0 158 -46.5 219t-158.5 61q-117 0 -188 -83v-748h-254z " />
<glyph unicode="n" horiz-adv-x="1130" d="M119 0v1024h237l4 -61q109 77 226 77q436 0 436 -489v-551h-254v551q0 143 -49 211.5t-154 68.5q-116 0 -192 -88v-743h-254z" />
<glyph unicode="o" horiz-adv-x="1150" d="M57 510q0 222 140 377q141 153 378 153q239 0 377 -153q142 -154 142 -377t-142 -377q-138 -153 -377 -153q-237 0 -378 153q-140 155 -140 377zM317 510q0 -145 68 -234q70 -88 190 -88q122 0 189 88q70 88 70 234q0 145 -70 233q-67 88 -189 88q-120 0 -190 -88 q-68 -89 -68 -233z" />
<glyph unicode="p" horiz-adv-x="1171" d="M119 -496v1520h221l20 -59q112 75 252 75q237 0 369 -153q133 -151 133 -377q0 -225 -133 -379q-133 -151 -369 -151q-136 0 -239 69v-545h-254zM360 510q0 -152 60 -237t176 -85q120 0 189 87t69 235q0 147 -68.5 234t-189.5 87q-116 0 -176 -84.5t-60 -236.5z" />
<glyph unicode="q" horiz-adv-x="1171" d="M57 510q0 226 133 377q132 153 369 153q140 0 252 -75l20 59h222v-1520h-254v545q-103 -69 -240 -69q-236 0 -369 151q-133 154 -133 379zM317 510q0 -148 69 -235t189 -87q116 0 176 85t60 237t-60 236.5t-176 84.5q-121 0 -189.5 -87t-68.5 -234z" />
<glyph unicode="r" horiz-adv-x="796" d="M147 0v1055h244v-240h4q11 86 94 175t195 89q55 0 84 -8v-276q-39 22 -123 22q-41 0 -74 -11.5t-55.5 -35t-39 -48.5t-26.5 -64t-16 -67.5t-8.5 -73t-3 -67.5t-0.5 -63v-387h-275z" />
<glyph unicode="s" horiz-adv-x="866" d="M63 55l23 217q54 -40 145 -71t170 -31q80 0 118 31t38 82q0 54 -42 84t-146 61q-12 4 -39 12t-35.5 10.5t-26.5 9t-32.5 13t-32.5 16.5q-64 33 -95 85.5t-34 140.5v15q0 114 88 212t287 98q92 0 184 -22t137 -53l-22 -217q-45 45 -125.5 77.5t-155.5 32.5 q-77 0 -123.5 -29t-46.5 -84q0 -47 28.5 -73t88.5 -45l35 -11q60 -15 81 -22q140 -40 210.5 -110t70.5 -203q0 -301 -401 -301q-235 0 -347 75z" />
<glyph unicode="t" horiz-adv-x="796" d="M150 317v949l274 88v-299h244v-201h-244v-492q0 -174 129 -174q81 0 125 29l8 -217q-92 -25 -203 -25q-158 0 -245.5 91t-87.5 251z" />
<glyph unicode="u" horiz-adv-x="1130" d="M109 473v551h253v-551q0 -143 49 -211.5t154 -68.5q119 0 193 86v745h254v-1024h-238l-4 61q-106 -81 -227 -81q-434 0 -434 493z" />
<glyph unicode="v" horiz-adv-x="1015" d="M6 1024h250l252 -709l252 709h250l-394 -1024h-217z" />
<glyph unicode="w" horiz-adv-x="1486" d="M20 1024h248l176 -715l193 695h213l190 -695l179 715h247l-299 -1024h-213l-211 668l-211 -668h-213z" />
<glyph unicode="x" horiz-adv-x="1005" d="M20 0l330 512l-330 512h304l186 -289l172 289h303l-332 -512l332 -512h-303l-186 289l-172 -289h-304z" />
<glyph unicode="y" horiz-adv-x="1099" d="M2 1065h283l262 -659l266 659h283l-641 -1520h-254l227 564z" />
<glyph unicode="z" horiz-adv-x="966" d="M43 0l453 799h-433v225h863l-453 -799h430v-225h-860z" />
<glyph unicode="{" horiz-adv-x="653" d="M29 629q95 50 131.5 112.5t36.5 178.5q0 1 -9 143q-6 66 -6 135q0 174 103.5 256t343.5 82v-223q-89 4 -137 -8.5t-78 -40.5q-12 -12 -21 -54q-12 -68 -10 -186q0 -45 2 -84q4 -74 4 -84q0 -163 -104 -227q104 -64 104 -211q0 -6 -4 -88q-2 -39 -2 -94v-113 q0 -34 9.5 -75.5t21.5 -53.5q30 -28 78 -40.5t137 -8.5v-224q-237 0 -342 81.5t-105 256.5q0 37 6 136q9 99 9 145q0 112 -36.5 176t-131.5 113z" />
<glyph unicode="|" horiz-adv-x="479" d="M137 -430v1966h205v-1966h-205z" />
<glyph unicode="}" horiz-adv-x="653" d="M25 -55q160 -8 213 49q12 10 22 53q8 39 8 76q2 23 2 113q0 16 -4 94q-2 41 -2 88q0 146 105 211q-105 65 -105 227q0 47 2 84q4 78 4 84q0 88 -2 111q0 38 -8.5 78t-21.5 51q-53 57 -213 49v223q240 0 343 -82t103 -256q0 -47 -8 -135q-6 -94 -6 -143 q0 -116 36.5 -178.5t131.5 -112.5q-95 -49 -131.5 -113t-36.5 -176q0 -46 6 -145q8 -88 8 -136q0 -175 -104.5 -256.5t-341.5 -81.5v224z" />
<glyph unicode="~" horiz-adv-x="954" d="M94 391q9 96 86 152q75 57 170 57q67 0 137 -43t105 -43q43 0 77 29.5t40 66.5l155 -41q-14 -88 -80 -148.5t-161 -60.5q-62 0 -144 43t-117 43q-39 0 -64.5 -28t-33.5 -68z" />
<glyph unicode="&#xa1;" horiz-adv-x="471" d="M109 -512l41 1126h172l40 -1126h-253zM109 770v254h253v-254h-253z" />
<glyph unicode="&#xa2;" horiz-adv-x="974" d="M70 713q0 208 110 354q115 148 314 172l-37 293h196l-35 -291q147 -6 256 -74l-22 -217q-128 84 -264 84q-121 0 -189.5 -87t-68.5 -234q0 -148 69 -235t189 -87q136 0 264 84l22 -217q-106 -67 -251 -76l30 -248h-196l32 252q-203 27 -311 172q-108 143 -108 355z" />
<glyph unicode="&#xa3;" horiz-adv-x="1075" d="M63 0q201 242 242 639h-182l41 172h151v213q0 91 12 154.5t44 128.5q69 139 291 139q250 0 303 -209l-99 -125q-21 74 -51 115q-36 51 -110 51q-104 0 -130 -90q-20 -74 -20 -205v-172h375l-41 -172h-342q-15 -237 -98 -426h497v-213h-883z" />
<glyph unicode="&#xa4;" horiz-adv-x="1286" d="M113 141l147 199q-135 147 -135 373t137 372l-149 199l123 102l151 -202q115 59 256 59q143 0 256 -61l154 204l123 -102l-150 -201q135 -147 135 -370q0 -224 -137 -373l152 -199l-123 -102l-154 203q-111 -60 -256 -60t-256 60l-151 -203zM385 713q0 -145 68 -234 q70 -88 190 -88q121 0 188 88q70 88 70 234q0 145 -70 233q-67 88 -188 88q-120 0 -190 -88q-68 -89 -68 -233z" />
<glyph unicode="&#xa5;" horiz-adv-x="1445" d="M55 1434h273l395 -566l395 566h273l-500 -744h299l-53 -141h-283v-125h336l-53 -141h-283v-283h-262v283h-338l49 141h289v125h-338l49 141h252z" />
<glyph unicode="&#xa6;" horiz-adv-x="458" d="M139 389h180v-819h-180v819zM139 582v954h180v-954h-180z" />
<glyph unicode="&#xa7;" horiz-adv-x="942" d="M80 680q0 228 174 301q-88 70 -88 213q0 139 82 240q82 102 270 102q82 0 170 -27q91 -25 123 -57l-18 -215q-141 102 -265 102q-184 0 -184 -118q0 -105 182 -172q41 -15 65.5 -24.5t64.5 -29t65 -37.5t54.5 -46.5t46.5 -60t28.5 -75.5t11.5 -94q0 -230 -176 -301 q88 -73 88 -213q0 -139 -82 -240q-82 -102 -268 -102q-82 0 -170 27q-91 25 -123 57l19 215q141 -102 264 -102q184 0 184 118q0 103 -182 170q-40 14 -65.5 24.5t-64.5 29.5t-64.5 37.5t-55 47.5t-46.5 60.5t-28.5 75.5t-11.5 94zM274 725q0 -151 269 -219q36 0 82 43 q47 47 47 88q-6 59 -36.5 94t-94.5 62q-62 23 -66 24l-72 19q-37 0 -84 -35q-45 -33 -45 -76z" />
<glyph unicode="&#xa8;" horiz-adv-x="864" d="M178 1217v217h199v-217h-199zM487 1217v217h199v-217h-199z" />
<glyph unicode="&#xa9;" horiz-adv-x="1435" d="M82 748q0 301 178 485q180 186 459 186q280 0 457 -186q178 -184 178 -485t-178 -488q-178 -184 -457 -184t-459 186q-178 187 -178 486zM240 748q0 -240 122 -386q124 -145 357 -145q230 0 354 145q123 147 123 386q0 238 -123 382q-125 146 -354 146q-232 0 -357 -146 q-122 -143 -122 -382zM399 743q0 159 93 258t243 99q106 0 209 -47l-20 -174q-115 47 -189 47q-72 0 -110.5 -48t-38.5 -135q0 -86 39 -134t110 -48q84 0 189 51l20 -172q-86 -51 -209 -51q-147 0 -241 98q-95 100 -95 256z" />
<glyph unicode="&#xaa;" horiz-adv-x="739" d="M61 1077q0 55 39 99t101 67q118 42 186 45l-8 9q-8 9 -27 18.5t-47 9.5q-44 0 -104 -14q-32 -8 -78 -17l-10 166q124 39 252 39q96 0 165.5 -47.5t69.5 -120.5v-219q0 -49 33 -49h33l-9 -174q-185 0 -235 41q-44 -41 -193 -41q-71 0 -119.5 50t-48.5 138zM287 1081 q0 -26 21 -42.5t52 -16.5q1 0 29 4v127q-102 -21 -102 -72z" />
<glyph unicode="&#xab;" horiz-adv-x="1243" d="M23 582l311 422h301l-311 -422l311 -422h-301zM555 582l311 422h301l-311 -422l311 -422h-301z" />
<glyph unicode="&#xac;" horiz-adv-x="1204" d="M123 639v192h942v-522h-193v330h-749z" />
<glyph unicode="&#xad;" horiz-adv-x="856" d="M111 471v193h634v-193h-634z" />
<glyph unicode="&#xae;" horiz-adv-x="1435" d="M82 748q0 301 178 485q180 186 459 186q280 0 457 -186q178 -184 178 -485t-178 -488q-178 -184 -457 -184t-459 186q-178 187 -178 486zM242 748q0 -236 123 -383q125 -146 354 -146q230 0 352 146q123 147 123 383t-123 380q-122 146 -352 146q-229 0 -354 -146 q-123 -144 -123 -380zM461 416v686h260q244 0 244 -225q0 -54 -28 -103.5t-69 -75.5l152 -282h-191l-127 229h-61v-229h-180zM641 811h49q52 0 71 16.5t19 53.5t-17 52t-69 15h-53v-137z" />
<glyph unicode="&#xb0;" horiz-adv-x="665" d="M61 1266q0 121 75 200.5t196 79.5q122 0 197 -79.5t75 -200.5t-75 -200t-197 -79q-121 0 -196 79.5t-75 199.5zM201 1266q0 -80 35 -127t96 -47q62 0 96.5 46.5t34.5 127.5t-34.5 128.5t-96.5 47.5q-61 0 -96 -48t-35 -128z" />
<glyph unicode="&#xb1;" horiz-adv-x="997" d="M119 61v193h758v-193h-758zM119 635v192h282v263h193v-263h283v-192h-283v-262h-193v262h-282z" />
<glyph unicode="&#xb2;" horiz-adv-x="632" d="M35 655q319 439 319 553q0 88 -73 88q-37 0 -71 -17.5t-59 -46t-37.5 -45.5t-21.5 -34l-24 178q65 115 247 115q112 0 168 -58t56 -145q0 -137 -166 -385h192v-203h-530z" />
<glyph unicode="&#xb3;" horiz-adv-x="624" d="M35 700l49 185q62 -45 156 -45q137 0 137 45q0 116 -90 116h-135l14 148h70q30 0 52 7.5t32.5 18.5t15 20.5t4.5 16.5q0 76 -129 76q-70 0 -96 -26l-27 133q24 23 76.5 37t103.5 14q78 0 133.5 -21.5t82 -57t37.5 -69t11 -69.5t-8.5 -71t-17.5 -53.5t-14 -19.5 q4 -10 24 -41t33.5 -66.5t13.5 -76.5q0 -121 -92 -192q-88 -70 -217 -70q-70 0 -137 20q-68 20 -82 41z" />
<glyph unicode="&#xb4;" horiz-adv-x="620" d="M119 1198v152l383 186v-213z" />
<glyph unicode="&#xb5;" horiz-adv-x="1247" d="M141 -496v1520h254v-551q0 -143 49 -211.5t154 -68.5q119 0 193 86v745h253v-672q0 -106 17 -137q15 -27 74 -27h32l-22 -208h-92q-159 0 -222 106q-45 -44 -116 -73t-137 -29q-101 0 -183 28v-508h-254z" />
<glyph unicode="&#xb6;" d="M68 954q0 195 153 336q156 144 434 144h533v-220h-141v-1214h-181v1214h-127v-1214h-141v469q-253 15 -391 156q-139 142 -139 329z" />
<glyph unicode="&#xb7;" horiz-adv-x="475" d="M111 436v266h254v-266h-254z" />
<glyph unicode="&#xb8;" horiz-adv-x="620" d="M264 -397l144 272l213 19l-205 -273z" />
<glyph unicode="&#xb9;" horiz-adv-x="452" d="M57 1157v152q38 0 75.5 38.5t45.5 82.5h156v-775h-197v519z" />
<glyph unicode="&#xba;" horiz-adv-x="772" d="M57 1194q0 127 88 215q90 90 240 90q148 0 238 -90t90 -215t-90 -215t-238 -90q-150 0 -240 90q-88 88 -88 215zM272 1193.5q0 -59.5 31 -103.5q31 -43 82 -43t82 43q31 44 31 103.5t-31 102.5q-31 44 -82 44t-82 -44q-31 -43 -31 -102.5z" />
<glyph unicode="&#xbb;" horiz-adv-x="1243" d="M76 160l311 422l-311 422h301l311 -422l-311 -422h-301zM608 160l312 422l-312 422h301l312 -422l-312 -422h-301z" />
<glyph unicode="&#xbc;" horiz-adv-x="1507" d="M88 1157v152q38 0 75.5 38.5t45.5 82.5h156v-775h-197v519zM121 -174l747 1608h275l-748 -1608h-274zM784 211l383 563h172v-418h101v-145h-101v-211h-196v211h-359zM1032 356h111v156z" />
<glyph unicode="&#xbd;" horiz-adv-x="1501" d="M82 1157v152q38 0 75.5 38.5t45.5 82.5h155v-775h-196v519zM115 -174l747 1608h275l-748 -1608h-274zM899 0q320 440 320 553q0 88 -74 88q-37 0 -71 -17.5t-59 -46t-37.5 -45.5t-21.5 -34l-24 178q65 115 248 115q111 0 167 -58t56 -145q0 -137 -166 -385h193v-203h-531 z" />
<glyph unicode="&#xbe;" horiz-adv-x="1851" d="M63 700l50 185q62 -45 155 -45q138 0 138 45q0 116 -91 116h-135l15 148h69q30 0 52.5 7.5t33 18.5t15 20.5t4.5 16.5q0 76 -129 76q-71 0 -97 -26l-26 133q24 23 76.5 37t103.5 14q78 0 133.5 -21.5t82 -57t37.5 -69t11 -69.5t-9 -71t-18 -53.5t-14 -19.5 q4 -10 24.5 -41t34 -66.5t13.5 -76.5q0 -121 -92 -192q-88 -70 -217 -70q-71 0 -138 20q-68 20 -82 41zM457 -174l747 1608h275l-748 -1608h-274zM1126 211l383 563h172v-418h101v-145h-101v-211h-196v211h-359zM1374 356h111v156z" />
<glyph unicode="&#xbf;" horiz-adv-x="897" d="M94 -123q0 116 113 275l92 129q113 159 113 307v26h172q6 -92 6 -108q0 -81 -37.5 -170t-91.5 -158q-53 -69 -90 -150t-37 -149q0 -92 56 -141t151 -49q159 0 254 133l57 -189q-100 -145 -328 -145q-204 0 -317 125q-113 122 -113 264zM371 770v254h254v-254h-254z" />
<glyph unicode="&#xc0;" d="M6 0l510 1434h248l510 -1434h-273l-122 346h-478l-122 -346h-273zM449 1733v213l382 -187v-151zM492 600h296l-149 420z" />
<glyph unicode="&#xc1;" d="M6 0l510 1434h248l510 -1434h-273l-122 346h-478l-122 -346h-273zM449 1608v151l382 187v-213zM492 600h296l-149 420z" />
<glyph unicode="&#xc2;" d="M6 0l510 1434h248l510 -1434h-273l-122 346h-478l-122 -346h-273zM338 1608v151l301 187l301 -187v-151l-301 145zM492 600h296l-149 420z" />
<glyph unicode="&#xc3;" d="M6 0l510 1434h248l510 -1434h-273l-122 346h-478l-122 -346h-273zM254 1667q9 96 86 152q75 57 170 57q67 0 137 -43t105 -43q43 0 76.5 29.5t39.5 66.5l156 -41q-14 -88 -80.5 -148.5t-161.5 -60.5q-61 0 -143 43t-117 43q-39 0 -64.5 -28t-33.5 -68zM492 600h296 l-149 420z" />
<glyph unicode="&#xc4;" d="M6 0l510 1434h248l510 -1434h-273l-122 346h-478l-122 -346h-273zM385 1626v217h199v-217h-199zM492 600h296l-149 420zM694 1626v217h199v-217h-199z" />
<glyph unicode="&#xc5;" d="M6 0l510 1434h248l510 -1434h-273l-122 346h-478l-122 -346h-273zM426 1771.5q0 77.5 57 131.5q59 53 156 53q95 0 154 -53q60 -54 60 -131.5t-60 -131.5q-57 -51 -154 -51q-99 0 -156 51q-57 54 -57 131.5zM492 600h296l-149 420zM548 1770.5q0 -37.5 25 -60.5 q27 -24 65.5 -24t63.5 24q26 25 26 60.5t-26 60.5q-25 24 -63.5 24t-65.5 -24q-25 -23 -25 -60.5z" />
<glyph unicode="&#xc6;" horiz-adv-x="1775" d="M-23 0l699 1434h1012v-254h-607v-306h467v-253h-467v-367h625v-254h-893v346h-397l-166 -346h-273zM537 600h276v574z" />
<glyph unicode="&#xc7;" horiz-adv-x="1249" d="M72 717q0 333 196 538q201 207 510 207q232 0 408 -84l-29 -250q-204 82 -379 82q-199 0 -309.5 -133.5t-110.5 -359.5q0 -227 110.5 -360.5t309.5 -133.5q175 0 379 82l29 -250q-176 -84 -408 -84q-311 0 -510 205q-196 205 -196 541zM444 -397l144 272l213 19 l-205 -273z" />
<glyph unicode="&#xc8;" horiz-adv-x="1163" d="M158 0v1434h917v-254h-649v-306h504v-253h-504v-367h670v-254h-938zM369 1733v213l383 -187v-151z" />
<glyph unicode="&#xc9;" horiz-adv-x="1163" d="M158 0v1434h917v-254h-649v-306h504v-253h-504v-367h670v-254h-938zM369 1608v151l383 187v-213z" />
<glyph unicode="&#xca;" horiz-adv-x="1163" d="M158 0v1434h917v-254h-649v-306h504v-253h-504v-367h670v-254h-938zM258 1608v151l301 187l301 -187v-151l-301 145z" />
<glyph unicode="&#xcb;" horiz-adv-x="1163" d="M158 0v1434h917v-254h-649v-306h504v-253h-504v-367h670v-254h-938zM305 1626v217h199v-217h-199zM614 1626v217h199v-217h-199z" />
<glyph unicode="&#xcc;" horiz-adv-x="577" d="M98 1733v213l383 -187v-151zM158 0v1434h262v-1434h-262z" />
<glyph unicode="&#xcd;" horiz-adv-x="577" d="M98 1608v151l383 187v-213zM158 0v1434h262v-1434h-262z" />
<glyph unicode="&#xce;" horiz-adv-x="577" d="M-12 1608v151l301 187l301 -187v-151l-301 145zM158 0v1434h262v-1434h-262z" />
<glyph unicode="&#xcf;" horiz-adv-x="577" d="M35 1626v217h198v-217h-198zM158 0v1434h262v-1434h-262zM344 1626v217h199v-217h-199z" />
<glyph unicode="&#xd0;" horiz-adv-x="1497" d="M-8 612v193h188v629h537q314 0 510 -193t196 -524t-196 -524t-510 -193h-537v612h-188zM442 252h275q203 0 311.5 122t108.5 343t-108.5 343t-311.5 122h-275v-377h250v-193h-250v-360z" />
<glyph unicode="&#xd1;" horiz-adv-x="1447" d="M158 0v1434h258l612 -926v926h262v-1434h-215l-655 983v-983h-262zM338 1667q9 96 86 152q75 57 170 57q67 0 137 -43t105 -43q43 0 76.5 29.5t39.5 66.5l156 -41q-14 -88 -80.5 -148.5t-161.5 -60.5q-61 0 -143 43t-117 43q-39 0 -64.5 -28t-33.5 -68z" />
<glyph unicode="&#xd2;" horiz-adv-x="1556" d="M72 717q0 333 196 538q201 207 510 207q310 0 508 -207q199 -205 199 -538q0 -336 -199 -541q-196 -205 -508 -205q-311 0 -510 205q-196 205 -196 541zM358 717q0 -223 109 -359q108 -135 311 -135q204 0 312 135t108 359q0 223 -108 358t-312 135q-203 0 -311 -135 q-109 -136 -109 -358zM586 1733v213l383 -187v-151z" />
<glyph unicode="&#xd3;" horiz-adv-x="1556" d="M72 717q0 333 196 538q201 207 510 207q310 0 508 -207q199 -205 199 -538q0 -336 -199 -541q-196 -205 -508 -205q-311 0 -510 205q-196 205 -196 541zM358 717q0 -223 109 -359q108 -135 311 -135q204 0 312 135t108 359q0 223 -108 358t-312 135q-203 0 -311 -135 q-109 -136 -109 -358zM586 1608v151l383 187v-213z" />
<glyph unicode="&#xd4;" horiz-adv-x="1556" d="M72 717q0 333 196 538q201 207 510 207q310 0 508 -207q199 -205 199 -538q0 -336 -199 -541q-196 -205 -508 -205q-311 0 -510 205q-196 205 -196 541zM358 717q0 -223 109 -359q108 -135 311 -135q204 0 312 135t108 359q0 223 -108 358t-312 135q-203 0 -311 -135 q-109 -136 -109 -358zM477 1608v151l301 187l301 -187v-151l-301 145z" />
<glyph unicode="&#xd5;" horiz-adv-x="1556" d="M72 717q0 333 196 538q201 207 510 207q310 0 508 -207q199 -205 199 -538q0 -336 -199 -541q-196 -205 -508 -205q-311 0 -510 205q-196 205 -196 541zM358 717q0 -223 109 -359q108 -135 311 -135q204 0 312 135t108 359q0 223 -108 358t-312 135q-203 0 -311 -135 q-109 -136 -109 -358zM393 1667q9 96 86 152q75 57 170 57q67 0 137 -43t105 -43q43 0 77 29.5t40 66.5l155 -41q-14 -88 -80 -148.5t-161 -60.5q-62 0 -144 43t-116 43q-39 0 -65 -28t-34 -68z" />
<glyph unicode="&#xd6;" horiz-adv-x="1556" d="M72 717q0 333 196 538q201 207 510 207q310 0 508 -207q199 -205 199 -538q0 -336 -199 -541q-196 -205 -508 -205q-311 0 -510 205q-196 205 -196 541zM358 717q0 -223 109 -359q108 -135 311 -135q204 0 312 135t108 359q0 223 -108 358t-312 135q-203 0 -311 -135 q-109 -136 -109 -358zM524 1626v217h199v-217h-199zM834 1626v217h198v-217h-198z" />
<glyph unicode="&#xd7;" horiz-adv-x="917" d="M115 348l219 219l-219 219l125 125l219 -219l219 219l125 -125l-219 -219l219 -219l-125 -125l-219 219l-219 -219z" />
<glyph unicode="&#xd8;" horiz-adv-x="1556" d="M72 717q0 333 196 538q201 207 510 207q179 0 320 -69l51 73h274l-141 -206q203 -206 203 -543q0 -336 -199 -541q-196 -205 -508 -205q-178 0 -329 74l-74 -108h-275l166 241q-194 206 -194 539zM358 717q0 -184 70 -303l522 764q-71 32 -172 32q-199 0 -309.5 -133.5 t-110.5 -359.5zM596 258q81 -35 182 -35q199 0 309.5 133.5t110.5 360.5q0 186 -76 311z" />
<glyph unicode="&#xd9;" horiz-adv-x="1470" d="M141 614v820h262v-732q0 -240 75 -359.5t257 -119.5t257 119.5t75 359.5v732h262v-820q0 -305 -151.5 -474t-442.5 -169t-442.5 169t-151.5 474zM543 1733v213l383 -187v-151z" />
<glyph unicode="&#xda;" horiz-adv-x="1470" d="M141 614v820h262v-732q0 -240 75 -359.5t257 -119.5t257 119.5t75 359.5v732h262v-820q0 -305 -151.5 -474t-442.5 -169t-442.5 169t-151.5 474zM543 1608v151l383 187v-213z" />
<glyph unicode="&#xdb;" horiz-adv-x="1470" d="M141 614v820h262v-732q0 -240 75 -359.5t257 -119.5t257 119.5t75 359.5v732h262v-820q0 -305 -151.5 -474t-442.5 -169t-442.5 169t-151.5 474zM434 1608v151l301 187l301 -187v-151l-301 145z" />
<glyph unicode="&#xdc;" horiz-adv-x="1470" d="M141 614v820h262v-732q0 -240 75 -359.5t257 -119.5t257 119.5t75 359.5v732h262v-820q0 -305 -151.5 -474t-442.5 -169t-442.5 169t-151.5 474zM481 1626v217h199v-217h-199zM791 1626v217h198v-217h-198z" />
<glyph unicode="&#xdd;" horiz-adv-x="1224" d="M-14 1434h278l348 -566l349 566h278l-496 -799v-635h-262v635zM420 1608v151l383 187v-213z" />
<glyph unicode="&#xde;" horiz-adv-x="1155" d="M158 0v1434h262v-269h94q246 0 379 -39q116 -35 171.5 -112.5t55.5 -216.5q0 -219 -143.5 -310.5t-462.5 -91.5h-94v-395h-262zM420 592h162q146 0 209 46.5t63 145.5t-60 140t-212 41h-162v-373z" />
<glyph unicode="&#xdf;" horiz-adv-x="1157" d="M35 815l22 209h123v113q0 171 127 286q125 113 283 113q51 0 104.5 -13t107.5 -43.5t96 -73.5t68.5 -109.5t26.5 -145.5q0 -77 -24 -147q-22 -67 -54 -115l-53 -80q-24 -41 -24 -57q0 -40 137 -148q58 -47 98.5 -127.5t40.5 -171.5q0 -176 -127 -256t-325 -80 q-55 0 -123 11v190q165 0 231 18q44 13 62 41t18 78q0 69 -41 136t-100 108q-140 105 -140 186q-3 28 25.5 75t63.5 92t64 110.5t28 124.5q-3 90 -47 135t-115 45q-73 0 -115.5 -47t-42.5 -125v-1426h-250v1094h-145z" />
<glyph unicode="&#xe0;" horiz-adv-x="1019" d="M43 287q0 100 58.5 175t158.5 113q190 75 358 78q-5 91 -46.5 129.5t-137.5 38.5q-121 0 -280 -78l-23 207q191 90 373 90q370 0 370 -411v-277q0 -106 17 -137q15 -27 74 -27h32l-22 -208h-92q-167 0 -230 118q-106 -118 -313 -118q-130 0 -213.5 84t-83.5 223zM309 297 q0 -123 137 -123q98 0 175 74v233q-122 -6 -218 -53q-94 -46 -94 -131zM319 1323v213l383 -186v-152z" />
<glyph unicode="&#xe1;" horiz-adv-x="1019" d="M43 287q0 100 58.5 175t158.5 113q190 75 358 78q-5 91 -46.5 129.5t-137.5 38.5q-121 0 -280 -78l-23 207q191 90 373 90q370 0 370 -411v-277q0 -106 17 -137q15 -27 74 -27h32l-22 -208h-92q-167 0 -230 118q-106 -118 -313 -118q-130 0 -213.5 84t-83.5 223zM309 297 q0 -123 137 -123q98 0 175 74v233q-122 -6 -218 -53q-94 -46 -94 -131zM319 1198v152l383 186v-213z" />
<glyph unicode="&#xe2;" horiz-adv-x="1019" d="M43 287q0 100 58.5 175t158.5 113q190 75 358 78q-5 91 -46.5 129.5t-137.5 38.5q-121 0 -280 -78l-23 207q191 90 373 90q370 0 370 -411v-277q0 -106 17 -137q15 -27 74 -27h32l-22 -208h-92q-167 0 -230 118q-106 -118 -313 -118q-130 0 -213.5 84t-83.5 223z M211 1198v152l301 186l301 -186v-152l-301 145zM309 297q0 -123 137 -123q98 0 175 74v233q-122 -6 -218 -53q-94 -46 -94 -131z" />
<glyph unicode="&#xe3;" horiz-adv-x="1019" d="M43 287q0 100 58.5 175t158.5 113q190 75 358 78q-5 91 -46.5 129.5t-137.5 38.5q-121 0 -280 -78l-23 207q191 90 373 90q370 0 370 -411v-277q0 -106 17 -137q15 -27 74 -27h32l-22 -208h-92q-167 0 -230 118q-106 -118 -313 -118q-130 0 -213.5 84t-83.5 223z M121 1257q9 96 86 152q75 57 170 57q67 0 137 -43t104 -43q43 0 77 30t40 67l156 -41q-14 -88 -80.5 -148.5t-161.5 -60.5q-61 0 -143 43t-117 43q-39 0 -64.5 -28t-33.5 -68zM309 297q0 -123 137 -123q98 0 175 74v233q-122 -6 -218 -53q-94 -46 -94 -131z" />
<glyph unicode="&#xe4;" horiz-adv-x="1019" d="M43 287q0 100 58.5 175t158.5 113q190 75 358 78q-5 91 -46.5 129.5t-137.5 38.5q-121 0 -280 -78l-23 207q191 90 373 90q370 0 370 -411v-277q0 -106 17 -137q15 -27 74 -27h32l-22 -208h-92q-167 0 -230 118q-106 -118 -313 -118q-130 0 -213.5 84t-83.5 223z M258 1217v217h199v-217h-199zM309 297q0 -123 137 -123q98 0 175 74v233q-122 -6 -218 -53q-94 -46 -94 -131zM567 1217v217h199v-217h-199z" />
<glyph unicode="&#xe5;" horiz-adv-x="1019" d="M43 287q0 100 58.5 175t158.5 113q190 75 358 78q-5 91 -46.5 129.5t-137.5 38.5q-121 0 -280 -78l-23 207q191 90 373 90q370 0 370 -411v-277q0 -106 17 -137q15 -27 74 -27h32l-22 -208h-92q-167 0 -230 118q-106 -118 -313 -118q-130 0 -213.5 84t-83.5 223z M299 1362q0 77 57 131q59 53 156 53q95 0 154 -53q60 -54 60 -131t-60 -131q-57 -51 -154 -51q-99 0 -156 51q-57 54 -57 131zM309 297q0 -123 137 -123q98 0 175 74v233q-122 -6 -218 -53q-94 -46 -94 -131zM421 1360.5q0 -37.5 25 -60.5q27 -24 65.5 -24t63.5 24 q26 25 26 60.5t-26 60.5q-25 24 -63.5 24t-65.5 -24q-25 -23 -25 -60.5z" />
<glyph unicode="&#xe6;" horiz-adv-x="1626" d="M41 260q0 87 40 157.5t103 110.5q55 36 146 66q125 39 288 49q-5 98 -46 138t-140 40q-121 0 -280 -78l-23 207q191 90 371 90q126 0 200 -42t109 -140q27 71 127 125q99 57 227 57q179 0 293 -120q113 -119 113 -320q0 -56 -17 -143h-649q20 -131 99.5 -200t193.5 -69 q68 0 158 24t157 60l13 -215q-148 -77 -340 -77q-303 0 -410 192q-159 -203 -397 -203q-159 0 -247.5 77.5t-88.5 213.5zM307 283q0 -53 35.5 -85t87.5 -32q76 0 141 65q66 69 66 183q0 43 -2 57q-124 -3 -225 -49q-103 -47 -103 -139zM909 629h432q0 88 -47 145t-139 57 t-159.5 -55.5t-86.5 -146.5z" />
<glyph unicode="&#xe7;" horiz-adv-x="919" d="M57 510q0 230 131 379q133 151 367 151q189 0 307 -75l-22 -217q-127 83 -265 83q-121 0 -189.5 -87t-68.5 -234q0 -148 69 -235t189 -87q137 0 265 84l22 -217q-118 -75 -307 -75q-234 0 -367 151q-131 149 -131 379zM340 -397l143 272l213 19l-204 -273z" />
<glyph unicode="&#xe8;" horiz-adv-x="1054" d="M57 510q0 225 131 377q132 153 361 153q198 0 323 -122q127 -121 127 -322q0 -57 -16 -139h-661q20 -129 105 -199t200 -70q68 0 158 24t157 60l12 -215q-148 -77 -342 -77q-266 0 -411 151q-144 150 -144 379zM328 629h413q0 85 -47.5 143.5t-136.5 58.5 q-91 0 -149.5 -53.5t-79.5 -148.5zM336 1323v213l383 -186v-152z" />
<glyph unicode="&#xe9;" horiz-adv-x="1054" d="M57 510q0 225 131 377q132 153 361 153q198 0 323 -122q127 -121 127 -322q0 -57 -16 -139h-661q20 -129 105 -199t200 -70q68 0 158 24t157 60l12 -215q-148 -77 -342 -77q-266 0 -411 151q-144 150 -144 379zM328 629h413q0 85 -47.5 143.5t-136.5 58.5 q-91 0 -149.5 -53.5t-79.5 -148.5zM336 1198v152l383 186v-213z" />
<glyph unicode="&#xea;" horiz-adv-x="1054" d="M57 510q0 225 131 377q132 153 361 153q198 0 323 -122q127 -121 127 -322q0 -57 -16 -139h-661q20 -129 105 -199t200 -70q68 0 158 24t157 60l12 -215q-148 -77 -342 -77q-266 0 -411 151q-144 150 -144 379zM225 1198v152l301 186l301 -186v-152l-301 145zM328 629 h413q0 85 -47.5 143.5t-136.5 58.5q-91 0 -149.5 -53.5t-79.5 -148.5z" />
<glyph unicode="&#xeb;" horiz-adv-x="1054" d="M57 510q0 225 131 377q132 153 361 153q198 0 323 -122q127 -121 127 -322q0 -57 -16 -139h-661q20 -129 105 -199t200 -70q68 0 158 24t157 60l12 -215q-148 -77 -342 -77q-266 0 -411 151q-144 150 -144 379zM272 1217v217h199v-217h-199zM328 629h413 q0 85 -47.5 143.5t-136.5 58.5q-91 0 -149.5 -53.5t-79.5 -148.5zM582 1217v217h198v-217h-198z" />
<glyph unicode="&#xec;" horiz-adv-x="491" d="M55 1323v213l383 -186v-152zM119 0v1024h254v-1024h-254z" />
<glyph unicode="&#xed;" horiz-adv-x="491" d="M55 1198v152l383 186v-213zM119 0v1024h254v-1024h-254z" />
<glyph unicode="&#xee;" horiz-adv-x="491" d="M-55 1198v152l301 186l301 -186v-152l-301 145zM119 0v1024h254v-1024h-254z" />
<glyph unicode="&#xef;" horiz-adv-x="491" d="M-8 1217v217h198v-217h-198zM119 0v1024h254v-1024h-254zM301 1217v217h199v-217h-199z" />
<glyph unicode="&#xf0;" horiz-adv-x="1026" d="M33 420q0 180 114 315q113 137 320 137q139 0 240 -79q-9 70 -52 174q-40 104 -88 135q-135 -102 -280 -117l-80 150q106 0 246 90q-116 99 -242 102l84 109q150 -3 297 -107q75 69 115 127l137 -33q-74 -118 -142 -192q124 -131 194.5 -315t70.5 -388q0 -152 -42 -266.5 t-116 -175.5q-136 -113 -313 -113q-201 0 -332 125t-131 322zM274 451q0 -117 60.5 -194t165.5 -77q97 0 159 63.5t62 180.5q0 119 -58.5 184.5t-168.5 65.5q-100 0 -160 -66t-60 -157z" />
<glyph unicode="&#xf1;" horiz-adv-x="1130" d="M119 0v1024h237l4 -61q109 77 226 77q436 0 436 -489v-551h-254v551q0 143 -49 211.5t-154 68.5q-116 0 -192 -88v-743h-254zM180 1257q9 96 86 152q75 57 170 57q67 0 137 -43t105 -43q43 0 77 30t40 67l155 -41q-14 -88 -80 -148.5t-161 -60.5q-62 0 -144 43t-116 43 q-39 0 -65 -28t-34 -68z" />
<glyph unicode="&#xf2;" horiz-adv-x="1150" d="M57 510q0 222 140 377q141 153 378 153q239 0 377 -153q142 -154 142 -377t-142 -377q-138 -153 -377 -153q-237 0 -378 153q-140 155 -140 377zM317 510q0 -145 68 -234q70 -88 190 -88q122 0 189 88q70 88 70 234q0 145 -70 233q-67 88 -189 88q-120 0 -190 -88 q-68 -89 -68 -233zM383 1323v213l383 -186v-152z" />
<glyph unicode="&#xf3;" horiz-adv-x="1150" d="M57 510q0 222 140 377q141 153 378 153q239 0 377 -153q142 -154 142 -377t-142 -377q-138 -153 -377 -153q-237 0 -378 153q-140 155 -140 377zM317 510q0 -145 68 -234q70 -88 190 -88q122 0 189 88q70 88 70 234q0 145 -70 233q-67 88 -189 88q-120 0 -190 -88 q-68 -89 -68 -233zM383 1198v152l383 186v-213z" />
<glyph unicode="&#xf4;" horiz-adv-x="1150" d="M57 510q0 222 140 377q141 153 378 153q239 0 377 -153q142 -154 142 -377t-142 -377q-138 -153 -377 -153q-237 0 -378 153q-140 155 -140 377zM274 1198v152l301 186l302 -186v-152l-302 145zM317 510q0 -145 68 -234q70 -88 190 -88q122 0 189 88q70 88 70 234 q0 145 -70 233q-67 88 -189 88q-120 0 -190 -88q-68 -89 -68 -233z" />
<glyph unicode="&#xf5;" horiz-adv-x="1150" d="M57 510q0 222 140 377q141 153 378 153q239 0 377 -153q142 -154 142 -377t-142 -377q-138 -153 -377 -153q-237 0 -378 153q-140 155 -140 377zM190 1257q9 96 86 152q75 57 170 57q68 0 138 -43t104 -43q43 0 77 30t40 67l156 -41q-14 -88 -80.5 -148.5t-161.5 -60.5 q-62 0 -144 43t-116 43q-39 0 -65 -28t-34 -68zM317 510q0 -145 68 -234q70 -88 190 -88q122 0 189 88q70 88 70 234q0 145 -70 233q-67 88 -189 88q-120 0 -190 -88q-68 -89 -68 -233z" />
<glyph unicode="&#xf6;" horiz-adv-x="1150" d="M57 510q0 222 140 377q141 153 378 153q239 0 377 -153q142 -154 142 -377t-142 -377q-138 -153 -377 -153q-237 0 -378 153q-140 155 -140 377zM317 510q0 -145 68 -234q70 -88 190 -88q122 0 189 88q70 88 70 234q0 145 -70 233q-67 88 -189 88q-120 0 -190 -88 q-68 -89 -68 -233zM322 1217v217h198v-217h-198zM631 1217v217h198v-217h-198z" />
<glyph unicode="&#xf7;" horiz-adv-x="1148" d="M102 471v193h942v-193h-942zM438 41v266h254v-266h-254zM438 827v267h254v-267h-254z" />
<glyph unicode="&#xf8;" horiz-adv-x="1150" d="M57 510q0 222 140 377q141 153 378 153q63 0 138 -16l32 70h224l-76 -154q201 -154 201 -430q0 -223 -142 -377q-138 -153 -377 -153q-68 0 -143 16l-33 -70h-217l74 154q-96 72 -147.5 184t-51.5 246zM317 510q0 -120 48 -205l251 522q-32 4 -41 4q-121 0 -189.5 -87 t-68.5 -234zM528 193q45 -5 47 -5q121 0 190 87.5t69 234.5q0 116 -50 205z" />
<glyph unicode="&#xf9;" horiz-adv-x="1130" d="M109 473v551h253v-551q0 -143 49 -211.5t154 -68.5q119 0 193 86v745h254v-1024h-238l-4 61q-106 -81 -227 -81q-434 0 -434 493zM373 1323v213l383 -186v-152z" />
<glyph unicode="&#xfa;" horiz-adv-x="1130" d="M109 473v551h253v-551q0 -143 49 -211.5t154 -68.5q119 0 193 86v745h254v-1024h-238l-4 61q-106 -81 -227 -81q-434 0 -434 493zM373 1198v152l383 186v-213z" />
<glyph unicode="&#xfb;" horiz-adv-x="1130" d="M109 473v551h253v-551q0 -143 49 -211.5t154 -68.5q119 0 193 86v745h254v-1024h-238l-4 61q-106 -81 -227 -81q-434 0 -434 493zM264 1198v152l301 186l301 -186v-152l-301 145z" />
<glyph unicode="&#xfc;" horiz-adv-x="1130" d="M109 473v551h253v-551q0 -143 49 -211.5t154 -68.5q119 0 193 86v745h254v-1024h-238l-4 61q-106 -81 -227 -81q-434 0 -434 493zM311 1217v217h199v-217h-199zM621 1217v217h198v-217h-198z" />
<glyph unicode="&#xfd;" horiz-adv-x="1099" d="M2 1024h283l262 -659l266 659h283l-641 -1520h-254l227 564zM358 1198v152l383 186v-213z" />
<glyph unicode="&#xfe;" horiz-adv-x="1169" d="M117 -496v2032h254v-563q101 67 239 67q237 0 369 -153q133 -151 133 -377q0 -225 -133 -379q-133 -151 -369 -151q-136 0 -239 69v-545h-254zM358 510q0 -152 60 -237t176 -85q120 0 189 87t69 235q0 147 -68.5 234t-189.5 87q-116 0 -176 -84.5t-60 -236.5z" />
<glyph unicode="&#xff;" horiz-adv-x="1099" d="M2 1024h283l262 -659l266 659h283l-641 -1520h-254l227 564zM295 1217v217h199v-217h-199zM604 1217v217h199v-217h-199z" />
<glyph unicode="&#x152;" horiz-adv-x="2177" d="M72 717q0 333 196 538q201 207 510 207q248 0 436 -141v113h875v-254h-606v-306h467v-253h-467v-367h624v-254h-893v113q-189 -142 -436 -142q-311 0 -510 205q-196 205 -196 541zM358 717q0 -223 109 -359q108 -135 311 -135q204 0 312 135t108 359q0 223 -108 358 t-312 135q-203 0 -311 -135q-109 -136 -109 -358z" />
<glyph unicode="&#x153;" horiz-adv-x="1832" d="M57 510q0 222 140 377q141 153 378 153q244 0 386 -161q136 161 366 161q199 0 324 -122q127 -121 127 -322q0 -52 -17 -139h-661q20 -129 105 -199t200 -70q68 0 158 24t157 60l13 -215q-148 -77 -342 -77q-277 0 -426 165q-143 -165 -390 -165q-237 0 -378 153 q-140 155 -140 377zM317 510q0 -145 68 -234q70 -88 190 -88q122 0 189 88q70 88 70 234q0 145 -70 233q-67 88 -189 88q-120 0 -190 -88q-68 -89 -68 -233zM1106 629h414q0 85 -48 143.5t-137 58.5q-91 0 -149.5 -53.5t-79.5 -148.5z" />
<glyph unicode="&#x178;" horiz-adv-x="1224" d="M-14 1434h278l348 -566l349 566h278l-496 -799v-635h-262v635zM358 1626v217h199v-217h-199zM668 1626v217h198v-217h-198z" />
<glyph unicode="&#x2c6;" horiz-adv-x="913" d="M156 1198v152l301 186l301 -186v-152l-301 145z" />
<glyph unicode="&#x2dc;" horiz-adv-x="1081" d="M156 1257q9 96 86 152q75 57 170 57q67 0 137 -43t104 -43q43 0 77 30t40 67l156 -41q-14 -88 -80.5 -148.5t-161.5 -60.5q-61 0 -143 43t-117 43q-39 0 -64.5 -28t-33.5 -68z" />
<glyph unicode="&#x2000;" horiz-adv-x="978" />
<glyph unicode="&#x2001;" horiz-adv-x="1956" />
<glyph unicode="&#x2002;" horiz-adv-x="978" />
<glyph unicode="&#x2003;" horiz-adv-x="1956" />
<glyph unicode="&#x2004;" horiz-adv-x="652" />
<glyph unicode="&#x2005;" horiz-adv-x="489" />
<glyph unicode="&#x2006;" horiz-adv-x="326" />
<glyph unicode="&#x2007;" horiz-adv-x="326" />
<glyph unicode="&#x2008;" horiz-adv-x="244" />
<glyph unicode="&#x2009;" horiz-adv-x="391" />
<glyph unicode="&#x200a;" horiz-adv-x="108" />
<glyph unicode="&#x2010;" horiz-adv-x="856" d="M111 471v193h634v-193h-634z" />
<glyph unicode="&#x2011;" horiz-adv-x="856" d="M111 471v193h634v-193h-634z" />
<glyph unicode="&#x2012;" horiz-adv-x="856" d="M111 471v193h634v-193h-634z" />
<glyph unicode="&#x2013;" horiz-adv-x="1015" d="M111 471v193h794v-193h-794z" />
<glyph unicode="&#x2014;" horiz-adv-x="1204" d="M111 471v193h983v-193h-983z" />
<glyph unicode="&#x2018;" horiz-adv-x="569" d="M70 918l186 512h244l-129 -512h-301z" />
<glyph unicode="&#x2019;" horiz-adv-x="569" d="M70 918l131 512h299l-189 -512h-241z" />
<glyph unicode="&#x201a;" horiz-adv-x="569" d="M70 -225l131 512h299l-189 -512h-241z" />
<glyph unicode="&#x201c;" horiz-adv-x="985" d="M70 918l186 512h244l-129 -512h-301zM485 918l187 512h243l-129 -512h-301z" />
<glyph unicode="&#x201d;" horiz-adv-x="985" d="M70 918l131 512h299l-189 -512h-241zM485 918l131 512h299l-188 -512h-242z" />
<glyph unicode="&#x201e;" horiz-adv-x="985" d="M70 -225l131 512h299l-189 -512h-241zM485 -225l131 512h299l-188 -512h-242z" />
<glyph unicode="&#x2022;" horiz-adv-x="610" d="M81 569.5q0 91.5 66 157.5t158 66t158 -66t66 -157.5t-66 -157.5t-158 -66t-158 66t-66 157.5z" />
<glyph unicode="&#x2026;" horiz-adv-x="1441" d="M111 0v266h254v-266h-254zM594 0v266h254v-266h-254zM1077 0v266h254v-266h-254z" />
<glyph unicode="&#x202f;" horiz-adv-x="391" />
<glyph unicode="&#x2039;" horiz-adv-x="710" d="M23 582l311 422h301l-311 -422l311 -422h-301z" />
<glyph unicode="&#x203a;" horiz-adv-x="710" d="M76 160l311 422l-311 422h301l311 -422l-311 -422h-301z" />
<glyph unicode="&#x205f;" horiz-adv-x="489" />
<glyph unicode="&#x20ac;" horiz-adv-x="1439" d="M66 428l61 176h188q-6 52 -6 113v28h-184l57 166h150q56 225 225 357q168 131 404 131q218 0 370 -76l-28 -231q-192 82 -342 82q-277 0 -357 -263h514l-61 -166h-479v-28q0 -72 8 -113h493l-61 -176h-375q94 -168 318 -168q150 0 342 82l28 -231q-152 -76 -370 -76 q-207 0 -367.5 104.5t-233.5 288.5h-294z" />
<glyph unicode="&#x2122;" horiz-adv-x="1513" d="M66 1274v160h575l-20 -160h-193v-584h-164v584h-198zM627 690l100 744h102l187 -304l184 304h105l100 -744h-170l-53 434l-156 -254h-22l-154 254l-55 -434h-168z" />
<glyph unicode="&#x25fc;" horiz-adv-x="1024" d="M0 0v1024h1024v-1024h-1024z" />
</font>
</defs>
</svg>
