<?xml version="1.0" standalone="no"?>
<!DOCTYPE svg PUBLIC "-//W3C//DTD SVG 1.1//EN" "http://www.w3.org/Graphics/SVG/1.1/DTD/svg11.dtd" >
<svg xmlns="http://www.w3.org/2000/svg" xmlns:xlink="http://www.w3.org/1999/xlink" version="1.1">
<metadata></metadata>
<defs>
<font id="westconcomstorlight" horiz-adv-x="556" >
<font-face units-per-em="2048" ascent="1638" descent="-410" />
<missing-glyph horiz-adv-x="500" />
<glyph horiz-adv-x="0" />
<glyph horiz-adv-x="682" />
<glyph />
<glyph />
<glyph />
<glyph />
<glyph />
<glyph />
<glyph />
<glyph unicode="&#x9;" />
<glyph unicode="&#xa;" />
<glyph />
<glyph />
<glyph />
<glyph />
<glyph />
<glyph />
<glyph />
<glyph />
<glyph />
<glyph />
<glyph />
<glyph />
<glyph unicode=" " />
<glyph unicode="!" horiz-adv-x="496" d="M151 1496h194l-62 -1126h-71zM192 0v136h112v-136h-112z" />
<glyph unicode="&#x22;" horiz-adv-x="898" d="M367 983v447h129v-447h-129zM643 983v447h129v-447h-129z" />
<glyph unicode="#" horiz-adv-x="1462" d="M203 358v119h223l40 437h-227v117h238l31 338h145l-32 -338h374l30 338h145l-31 -338h230v-117h-241l-40 -437h234l1 -119h-246l-33 -358h-140l31 358h-376l-33 -358h-143l32 358h-212zM570 477h376l38 437h-374z" />
<glyph unicode="$" horiz-adv-x="1053" d="M106 264l45 173q131 -109 381 -109q109 0 167 41t58 108q0 48 -36 84.5t-93.5 60t-126.5 44.5t-138.5 46t-127 57t-93.5 84.5t-36 121.5q0 123 89.5 201.5t281.5 95.5v240h97v-240q234 -13 339 -75l-18 -157q-100 47 -201 72.5t-171 25.5q-122 0 -195 -39t-73 -100 q0 -40 28.5 -70t75 -48.5t106.5 -37.5t122 -36t122 -45t106.5 -62.5t75 -91.5t28.5 -129q0 -95 -70 -186q-37 -49 -96.5 -72t-178.5 -33v-234h-97v232q-249 12 -371 78z" />
<glyph unicode="%" horiz-adv-x="1918" d="M85 1083q0 95 31 173t83.5 128t119.5 78t141 30q88 3 155.5 -27.5t108.5 -86.5t61.5 -128.5t20.5 -158.5q0 -125 -53.5 -218t-137.5 -139t-184 -48q-105 -2 -185.5 53t-120.5 145t-40 199zM234 1089q0 -126 56 -209t151 -82q98 1 157 77.5t59 210.5t-53.5 214.5 t-152.5 79.5q-98 -2 -157.5 -80t-59.5 -211zM567 0l658 1530h145l-658 -1530h-145zM1138 452q0 95 31 173t83.5 128t119 78t141.5 30q88 3 155.5 -27.5t108 -86.5t61 -128t20.5 -158q0 -125 -53.5 -218t-137 -138.5t-183.5 -48.5q-105 -2 -185.5 52.5t-120.5 144.5t-40 199z M1287 458q0 -126 56 -208.5t150 -81.5q98 1 157 77.5t59 210.5t-53.5 214.5t-151.5 79.5q-98 -2 -157.5 -80t-59.5 -212z" />
<glyph unicode="&#x26;" horiz-adv-x="1516" d="M148 386q0 252 336 400q-86 110 -136 207.5t-50 203.5q0 162 109.5 255.5t293.5 93.5q169 0 270.5 -98t101.5 -234q0 -88 -27 -161t-79.5 -130t-117 -99.5t-151.5 -82.5q75 -102 201.5 -259.5t202.5 -237.5q109 101 109 270q0 122 -38 214h147q35 -99 35 -214 q0 -228 -152 -358q57 -40 111.5 -55.5t125.5 -13.5v-88q-52 -15 -113 -15q-69 0 -125 20t-116 64q-73 -37 -162 -60.5t-172 -23.5q-277 0 -440.5 105t-163.5 297zM305 390q0 -123 109.5 -203.5t328.5 -80.5q115 0 239 53q-88 96 -208.5 248t-213.5 280 q-118 -55 -186.5 -126.5t-68.5 -170.5zM453 1200q0 -31 3 -57.5t14 -55t17.5 -46t28 -49t30 -44.5t38.5 -53.5t41 -54.5q144 60 224.5 148.5t80.5 223.5q0 85 -63.5 150t-169.5 65q-108 0 -176 -57.5t-68 -169.5z" />
<glyph unicode="'" horiz-adv-x="476" d="M221 983v447h129v-447h-129z" />
<glyph unicode="(" horiz-adv-x="665" d="M142 724q0 163 39 320t95 269.5t122 206t117 144t83 68.5l115 -57q-30 -22 -71.5 -65t-101.5 -129.5t-109 -189.5t-86 -254t-40 -313q-3 -127 14 -246t45 -210t67.5 -173.5t77.5 -140t80 -106t71 -75t53 -43.5l-115 -57q-23 14 -53 40t-75 75t-88 109.5t-87.5 148 t-77.5 185t-54 226.5t-21 267z" />
<glyph unicode=")" horiz-adv-x="818" d="M135 -248q30 22 71.5 65t101.5 129.5t109 189.5t86 254t40 313q3 127 -14 246t-45 210t-67.5 173.5t-77.5 140t-80 106t-71 75t-53 43.5l115 57q23 -14 53 -40t75 -75t88 -109.5t87.5 -148t77.5 -185t54 -226.5t21 -267q0 -163 -39 -320t-95 -269.5t-122 -206t-117 -144 t-83 -68.5z" />
<glyph unicode="*" horiz-adv-x="872" d="M68 1307l47 84l303 -177l-27 320h94l-32 -320l305 177l47 -86l-324 -129l232 -236l-68 -66l-209 273l-205 -279l-65 66l221 240z" />
<glyph unicode="+" horiz-adv-x="1177" d="M94 449v141h449v448h141v-448h449v-141h-449v-449h-141v449h-449z" />
<glyph unicode="," horiz-adv-x="508" d="M111 -274l118 446h172l-161 -446h-129z" />
<glyph unicode="-" horiz-adv-x="1229" d="M157 705v135h856v-135h-856z" />
<glyph unicode="." horiz-adv-x="485" d="M201 0v172h166v-172h-166z" />
<glyph unicode="/" horiz-adv-x="822" d="M6 -363l570 1962h151l-571 -1962h-150z" />
<glyph unicode="0" horiz-adv-x="1103" d="M83 715q0 108 12 204.5t44 195.5t83 169.5t135.5 115t194.5 44.5t194.5 -44.5t135.5 -115t83 -169.5t44 -195.5t12 -204.5q0 -71 -4.5 -135t-17.5 -139.5t-34 -138.5t-57.5 -123t-84 -101.5t-117 -66.5t-154.5 -25q-84 0 -153.5 25t-117.5 66.5t-84.5 101.5t-57.5 123 t-34 138.5t-17.5 139.5t-4.5 135zM225 715q0 -59 2.5 -109.5t10.5 -114.5t22 -115t39 -102.5t58.5 -86.5t83 -56.5t111.5 -21.5t112 21.5t83.5 56.5t58.5 86.5t38.5 102.5t22 115t11 115t2.5 109q0 606 -328 606q-62 0 -111.5 -21.5t-83 -56.5t-58.5 -86.5t-39 -103 t-22 -115.5t-10.5 -114.5t-2.5 -108.5z" />
<glyph unicode="1" horiz-adv-x="1103" d="M327 1159l323 271h127v-1430h-141v1270l-231 -203z" />
<glyph unicode="2" horiz-adv-x="1103" d="M122 0v123l328 362q74 81 128.5 148t107 145t80.5 150.5t28 134.5q0 112 -72.5 185t-179.5 73q-167 0 -344 -102l-24 129q196 96 360 96q88 0 162.5 -22.5t131 -67.5t88.5 -118t32 -167q0 -61 -24 -132t-60 -134.5t-92 -138.5t-104 -131t-113 -127l-259 -283h685v-123 h-859z" />
<glyph unicode="3" horiz-adv-x="1103" d="M117 43l17 135q147 -69 344 -69q68 0 130.5 17t116.5 51.5t86.5 94.5t32.5 138q0 51 -14 92t-36.5 68.5t-55.5 48.5t-66 32t-74.5 18t-74 9t-70.5 2h-131v123h37q49 0 88.5 2t92 8.5t92.5 18t81.5 33.5t69 51.5t44.5 74t17 99.5q0 75 -51 129.5t-123 78t-153 23.5 q-157 0 -320 -76l-12 133q176 66 346 66q92 0 171.5 -20.5t144 -61.5t102 -110.5t37.5 -161.5q0 -128 -81.5 -218.5t-215.5 -123.5v-5q139 -6 218 -102.5t79 -243.5q0 -126 -70 -221t-186 -142.5t-260 -47.5q-201 0 -353 57z" />
<glyph unicode="4" horiz-adv-x="1103" d="M35 330v139l643 961h180v-977h211v-123h-211v-330h-141v330h-682zM164 453h553v835h-4z" />
<glyph unicode="5" horiz-adv-x="1103" d="M139 37v145q134 -73 305 -73q57 0 111 12t103 38t85.5 63t58 91t21.5 119q0 165 -88.5 244.5t-269.5 79.5q-153 0 -309 -45l14 719h731v-123h-592l-10 -459q91 31 217 31q208 0 328 -111t120 -307q0 -230 -142 -352.5t-378 -122.5q-173 0 -305 51z" />
<glyph unicode="6" horiz-adv-x="1103" d="M89 664q0 134 20 247.5t68 213.5t120.5 169.5t183.5 109.5t253 40q97 0 229 -33l-12 -135q-96 43 -236 45q-107 1 -192 -32.5t-139 -90t-89.5 -135.5t-50 -161.5t-14.5 -174.5h4q54 87 143 131.5t193 44.5q61 0 119 -12t118.5 -43.5t105 -80t73 -128.5t28.5 -182 q0 -212 -125 -341.5t-342 -129.5q-458 0 -458 678zM244 463q0 -68 19 -130t55.5 -112.5t96.5 -81t136 -30.5q152 0 237 94t85 243q0 159 -77.5 246.5t-225.5 87.5q-152 0 -239 -87t-87 -230z" />
<glyph unicode="7" horiz-adv-x="1103" d="M116 1307v123h872v-123l-553 -1307h-155l569 1307h-733z" />
<glyph unicode="8" horiz-adv-x="1103" d="M77 367q0 79 24 140.5t72 105t102.5 73t131.5 57.5q-285 135 -285 367q0 69 28 126.5t73 95t102.5 63.5t114.5 37.5t112 11.5q86 0 161.5 -20t136 -59t95.5 -105t35 -150q0 -207 -292 -367q65 -23 110.5 -44t91.5 -53t74 -69.5t45.5 -90.5t17.5 -119q0 -81 -27.5 -147 t-73 -109t-108 -71.5t-128.5 -41t-138 -12.5q-88 0 -170.5 23t-151.5 68t-111 120t-42 170zM219 367q0 -114 101.5 -186t231.5 -72q66 0 123.5 15t106 45.5t76.5 84.5t28 125q0 37 -11 70t-33 59.5t-45.5 47t-59 41t-61 33.5t-65.5 31.5t-59 28.5q-7 -3 -22 -9 q-142 -57 -198 -97q-113 -81 -113 -217zM264 1098q0 -34 11 -66t25 -55.5t42 -49t47 -40.5t56 -36t53.5 -29.5t53.5 -26.5q45 22 80 41.5t76 49.5t68 60t45 69.5t18 82.5q0 105 -88 164t-199 59q-120 0 -204 -58.5t-84 -164.5z" />
<glyph unicode="9" horiz-adv-x="1103" d="M89 973q0 212 125 341.5t342 129.5q459 0 459 -678q0 -134 -20.5 -247.5t-68 -213.5t-120.5 -169.5t-184 -109.5t-252 -40q-96 0 -229 32l12 136q95 -43 235 -45q107 -1 192.5 32.5t139.5 90t89.5 135.5t50 161.5t14.5 173.5h-4q-54 -87 -143 -131.5t-193 -44.5 q-61 0 -119 12t-118.5 43.5t-105.5 80t-73.5 129t-28.5 182.5zM231 983q0 -159 77.5 -246.5t225.5 -87.5q152 0 238.5 87t86.5 231q0 92 -31.5 170t-103 131t-172.5 53q-152 0 -236.5 -94t-84.5 -244z" />
<glyph unicode=":" horiz-adv-x="471" d="M201 0v172h166v-172h-166zM201 872v172h166v-172h-166z" />
<glyph unicode=";" horiz-adv-x="479" d="M111 -274l118 446h172l-161 -446h-129zM201 872v172h166v-172h-166z" />
<glyph unicode="&#x3c;" horiz-adv-x="1211" d="M171 712v122l962 459v-156l-789 -364l789 -360v-159z" />
<glyph unicode="=" horiz-adv-x="1181" d="M241 428v127h915v-127h-915zM241 986v128h915v-128h-915z" />
<glyph unicode="&#x3e;" horiz-adv-x="1243" d="M235 254v159l789 360l-789 364v156l962 -459v-122z" />
<glyph unicode="?" horiz-adv-x="949" d="M176 1403q169 51 299 51q81 0 150.5 -22t124.5 -65.5t86.5 -115.5t31.5 -164q0 -68 -19.5 -127.5t-50 -104t-68 -85.5t-75 -82.5t-68 -85t-50 -101.5t-19.5 -124v-31h-129v27q0 75 18.5 139t48.5 109t66 86t72 80t66 80.5t48.5 97.5t18.5 122q0 112 -72.5 178t-185.5 66 q-52 0 -106.5 -9t-89.5 -19t-91 -29zM373 0v172h166v-172h-166z" />
<glyph unicode="@" horiz-adv-x="1654" d="M82 715q0 112 29 218.5t90 201.5t147 165.5t208 112t265 41.5q109 0 213.5 -25t197.5 -77t163.5 -124t111.5 -173.5t41 -218.5q0 -101 -31.5 -192.5t-82 -157.5t-112 -115t-123 -73t-114.5 -24q-137 0 -161 125h-4q-25 -29 -43 -45.5t-49 -38t-71 -31.5t-89 -10 q-120 0 -198.5 90t-78.5 218q0 100 34.5 199t95 178t150.5 128.5t193 49.5q158 0 226 -158l43 123h129l-175 -557q-20 -64 -20 -101q0 -47 45 -47q117 0 209 131.5t92 307.5q0 153 -84.5 267.5t-217 171t-290.5 56.5q-170 0 -308 -79t-217 -220t-79 -315q0 -132 46.5 -247.5 t126.5 -197t192 -128t239 -46.5q170 0 311.5 61t229.5 167h125q-95 -165 -271 -258t-395 -93q-178 0 -321.5 63.5t-233 169t-137 236t-47.5 271.5zM545 594q1 -92 41 -144.5t106 -52.5q71 0 136 43.5t107.5 109t67.5 140t25 139.5q0 98 -49 141.5t-115 43.5 q-50 0 -106 -31.5t-104 -85.5t-79 -134.5t-30 -168.5z" />
<glyph unicode="A" horiz-adv-x="1411" d="M13 0l588 1438h166l574 -1438h-163l-147 378h-705l-153 -378h-160zM372 505h615l-264 665l-38 120l-38 -121z" />
<glyph unicode="B" horiz-adv-x="1100" d="M164 0v1430h340q74 0 137 -10t122.5 -35.5t101 -64.5t66.5 -101t25 -142q0 -275 -260 -325v-4q139 -25 221 -113.5t82 -226.5q0 -113 -43.5 -194.5t-121.5 -127t-173 -66t-212 -20.5h-285zM305 123h148q62 0 115.5 7t108.5 26t93.5 49t63 80t24.5 116q0 73 -25.5 126.5 t-64 82.5t-99 46t-114 21.5t-125.5 4.5h-125v-559zM309 805h158q50 0 94 5.5t92.5 23t82.5 45.5t56.5 77.5t22.5 114.5q0 59 -21.5 103.5t-52.5 69t-75.5 39.5t-82 19.5t-79.5 4.5h-195v-502z" />
<glyph unicode="C" horiz-adv-x="1166" d="M117 715q0 216 87 383.5t251.5 261.5t382.5 94q80 0 179 -13.5t148 -39.5l-8 -131q-117 61 -319 61q-181 0 -314 -80.5t-199.5 -219t-66.5 -316.5q0 -278 152 -447.5t428 -169.5q215 0 319 62l8 -123q-53 -32 -148 -47t-179 -15q-222 0 -386 92.5t-249.5 259.5t-85.5 388 z" />
<glyph unicode="D" horiz-adv-x="1333" d="M164 0v1430h354q188 0 327 -52t223 -148.5t124.5 -224t40.5 -288.5q0 -152 -40 -273t-111.5 -203.5t-175 -137t-225.5 -79t-267 -24.5h-250zM305 123h117q670 0 670 602q0 127 -30 227.5t-82 166t-126.5 108.5t-158.5 61.5t-183 18.5h-207v-1184z" />
<glyph unicode="E" horiz-adv-x="1024" d="M176 0v1430h701v-123h-560v-510h531v-123h-531v-551h584v-123h-725z" />
<glyph unicode="F" horiz-adv-x="902" d="M156 0v1442h711v-131h-562v-501h509v-131h-509v-679h-149z" />
<glyph unicode="G" horiz-adv-x="1372" d="M131 715q0 216 87.5 383.5t252 261.5t381.5 94q97 0 207 -17t176 -51l-16 -131q-136 76 -367 76q-181 0 -314 -80.5t-199.5 -219t-66.5 -316.5q0 -278 152 -447.5t428 -169.5q83 0 170 12t133 40v501h-332v123h473v-711q-203 -88 -444 -88q-222 0 -386 92.5t-249.5 259.5 t-85.5 388z" />
<glyph unicode="H" horiz-adv-x="1323" d="M176 0v1442h149v-642h712v642h149v-1442h-149v670h-712v-670h-149z" />
<glyph unicode="I" horiz-adv-x="440" d="M151 0v1432h151v-1432h-151z" />
<glyph unicode="J" horiz-adv-x="435" d="M-35 -238h8q111 0 151 51t40 181v1440h134v-1500q0 -75 -11.5 -122.5t-43 -81.5t-85.5 -48t-140 -14h-32z" />
<glyph unicode="K" horiz-adv-x="1275" d="M195 0v1430h141v-642l643 642h184l-692 -674l752 -756h-195l-692 715v-715h-141z" />
<glyph unicode="L" horiz-adv-x="902" d="M166 0v1432h142v-1309h569v-123h-711z" />
<glyph unicode="M" horiz-adv-x="1783" d="M176 0v1430h219l523 -1258l524 1258h203v-1430h-142v1288h-4l-520 -1288h-121l-536 1288h-5v-1288h-141z" />
<glyph unicode="N" horiz-adv-x="1346" d="M158 0v1430h178l727 -1258h4v1258h141v-1430h-190l-715 1233h-4v-1233h-141z" />
<glyph unicode="O" horiz-adv-x="1481" d="M111 715v15q1 140 37 264q38 131 113.5 235t198.5 164.5t279 60.5q126 0 230.5 -39.5t178 -109t124 -163.5t74.5 -202q23 -103 22 -215v-10q-2 -166 -42.5 -301t-118.5 -233.5t-197 -152t-271 -53.5q-151 0 -270.5 53.5t-197 152t-118 233.5t-42.5 301zM252 715 q0 -93 18 -180.5t57 -167.5t95 -139.5t137.5 -94.5t179.5 -35t179.5 35t137.5 94.5t95.5 139.5t57.5 167.5t18 180.5t-18 180.5t-57.5 167t-95.5 139t-137.5 94.5t-179.5 35t-179.5 -35t-137.5 -94.5t-95 -139t-57 -167t-18 -180.5z" />
<glyph unicode="P" horiz-adv-x="1030" d="M176 0v1430h352q207 0 325 -104t118 -302q0 -129 -61.5 -222.5t-163.5 -138.5t-232 -45h-197v-618h-141zM317 741h99q51 0 90 2t84.5 9t78 19t64.5 33.5t52 50.5t32 72t12 97q0 135 -73.5 209t-208.5 74h-230v-566z" />
<glyph unicode="Q" horiz-adv-x="1474" d="M111 715v15q0 139 37 264q38 131 113.5 235t198.5 164.5t279 60.5q126 0 230.5 -39.5t178 -109t124 -163.5t74.5 -202q22 -103 22 -215v-10q-2 -169 -43.5 -306t-125 -236.5t-202.5 -147.5l301 -291h-188l-254 252q-6 -1 -57 -9q-38 -2 -60 -2q-151 0 -270.5 53.5 t-197 152t-118 233.5t-42.5 301zM252 715q0 -93 18 -180.5t57 -167.5t95 -139.5t137.5 -94.5t179.5 -35t179.5 35t137.5 94.5t95.5 139.5t57.5 167.5t18 180.5t-18 180.5t-57.5 167t-95.5 139t-137.5 94.5t-179.5 35t-179.5 -35t-137.5 -94.5t-95 -139t-57 -167t-18 -180.5z " />
<glyph unicode="R" horiz-adv-x="1176" d="M180 0v1430h369q199 0 309.5 -90.5t110.5 -280.5q0 -134 -90.5 -223t-227.5 -107v-4q42 -5 70.5 -17.5t50 -39t32.5 -48t32 -67.5l243 -553h-155l-207 483q-20 46 -38.5 78.5t-40 53.5t-39.5 33t-47 17.5t-51 7t-63 1.5h-116v-674h-142zM322 797h149q67 0 126.5 13.5 t113 42.5t85 82t31.5 124q0 49 -10 87t-26.5 64t-44.5 44.5t-55 28.5t-68 15.5t-74.5 7t-81.5 1.5h-145v-510z" />
<glyph unicode="S" horiz-adv-x="989" d="M119 1081q0 112 60.5 198t163 130.5t228.5 44.5q157 0 281 -47l-23 -129q-95 53 -260 53q-46 0 -88.5 -7.5t-83.5 -26t-71 -46t-48 -70t-18 -96.5q0 -58 36 -107t94 -85.5t127.5 -73t139.5 -78t128 -89.5t94 -118t36 -155q0 -84 -27.5 -153t-73.5 -114.5t-107 -77 t-126.5 -45.5t-134.5 -14q-180 0 -323 62l14 145q133 -84 316 -84q141 0 231 74t90 219q0 57 -36 106.5t-94 88t-127.5 76.5t-139.5 79.5t-128 88t-94 111t-36 140.5z" />
<glyph unicode="T" horiz-adv-x="1058" d="M12 1321v131h1000v-131h-428v-1321h-131v1321h-441z" />
<glyph unicode="U" horiz-adv-x="1432" d="M171 644v789h169l-1 -749q0 -163 27 -274.5t82 -175t127.5 -90.5t173.5 -27q75 0 133 17t107 57.5t80.5 105t49 162t17.5 226.5v747h168v-787q0 -661 -560 -661q-296 0 -434.5 166t-138.5 494z" />
<glyph unicode="V" horiz-adv-x="1318" d="M-19 1442h169l401 -1045l76 -244l76 244l380 1045h168l-554 -1448h-142z" />
<glyph unicode="W" horiz-adv-x="1998" d="M18 1430h146l352 -1270h4l367 1270h170l360 -1270h4l359 1270h135l-414 -1430h-168l-362 1270h-4l-369 -1270h-170z" />
<glyph unicode="X" horiz-adv-x="1312" d="M14 0l533 752l-479 678h165l402 -578l405 578h158l-481 -678l520 -752h-172l-436 651l-453 -651h-162z" />
<glyph unicode="Y" horiz-adv-x="1275" d="M31 1412h181l374 -591l51 -115l44 115l359 591h179l-499 -825v-587h-172v584z" />
<glyph unicode="Z" horiz-adv-x="1018" d="M43 0v123l745 1184h-727v123h877v-123l-741 -1184h766v-123h-920z" />
<glyph unicode="[" horiz-adv-x="642" d="M226 2v1542q0 115 29.5 154t120.5 39q110 0 312 -20v-90h-302v-1709l302 -2v-87q-140 -20 -312 -20q-91 0 -120.5 39t-29.5 154z" />
<glyph unicode="\" horiz-adv-x="765" d="M66 1599h151l570 -1962h-150z" />
<glyph unicode="]" horiz-adv-x="741" d="M153 -84l302 2v1709h-302v90q202 20 312 20q91 0 120.5 -39t29.5 -154v-1542q0 -115 -29.5 -154t-120.5 -39q-172 0 -312 20v87z" />
<glyph unicode="^" horiz-adv-x="1214" d="M99 559l454 892h154l417 -892h-160l-334 729l-370 -729h-161z" />
<glyph unicode="_" horiz-adv-x="1617" d="M-40 -297h1772v-105h-1772v105z" />
<glyph unicode="`" horiz-adv-x="622" d="M50 1678l120 103q93 -121 337 -398l-85 -68q-75 50 -194.5 165t-177.5 198z" />
<glyph unicode="a" horiz-adv-x="1025" d="M82 270q0 73 22.5 131t57 95.5t90 65t106.5 41.5t122.5 22t122.5 10t122 2h25v53q0 137 -55 202.5t-183 65.5q-174 0 -307 -86v125q61 30 150 51t157 21q193 0 280 -92.5t87 -296.5v-461q0 -147 10 -219h-127v168h-4q-42 -90 -136 -141.5t-196 -51.5q-85 0 -149.5 22 t-100.5 54t-58 75t-29 77t-7 67zM223 274q0 -97 60.5 -142.5t156.5 -45.5q62 0 112 15.5t82 38.5t55 59.5t34.5 67.5t18 72.5t7.5 66t1 57.5v63h-37q-55 0 -98.5 -2t-96 -8t-92.5 -16.5t-80 -29.5t-65.5 -45t-41.5 -64.5t-16 -86.5z" />
<glyph unicode="b" horiz-adv-x="1125" d="M150 0v1536h129v-668h4q8 24 30.5 54t60.5 65t100 58.5t134 23.5q112 0 196 -40t134.5 -114.5t75 -172.5t24.5 -220q0 -117 -27.5 -216t-79.5 -173t-135 -116t-188 -42q-226 0 -325 191h-4v-166h-129zM279 522q0 -60 10 -118.5t33 -117t57.5 -102t88.5 -71t120 -27.5 q71 0 126.5 26.5t89 68.5t55.5 100.5t30 117t8 123.5t-8 123.5t-30 117t-55.5 100.5t-89 68.5t-126.5 26.5q-84 0 -147 -40.5t-96.5 -107t-49.5 -139t-16 -149.5z" />
<glyph unicode="c" horiz-adv-x="914" d="M84 522q0 242 142.5 394.5t373.5 152.5q126 0 252 -41l-10 -123q-120 53 -224 53q-184 0 -288.5 -120.5t-104.5 -315.5q0 -184 104 -310t275 -126q110 0 236 47l12 -121q-109 -37 -268 -37q-122 0 -219 44t-157.5 120.5t-92 174t-31.5 208.5z" />
<glyph unicode="d" horiz-adv-x="1122" d="M100 522q0 122 24.5 220t75 172.5t134.5 114.5t196 40q72 0 134 -23.5t100.5 -58.5t61 -65t30.5 -54h4v668h129v-1536h-129v166h-4q-52 -99 -132 -145t-194 -46q-139 0 -237.5 73t-145.5 195t-47 279zM242 522q0 -65 8 -123.5t30 -117t55.5 -100.5t89 -68.5t126.5 -26.5 q66 0 120 27.5t88 71.5t57.5 102t33.5 116.5t10 118.5t-10 119t-33.5 117t-57.5 102t-88 71t-120 27q-71 0 -126.5 -26.5t-89 -68.5t-55.5 -100.5t-30 -117t-8 -123.5z" />
<glyph unicode="e" horiz-adv-x="1032" d="M84 522q0 241 121.5 394t318.5 153q86 0 156 -27t118 -74.5t80.5 -113.5t47 -141.5t14.5 -161.5v-66h-715q0 -173 90.5 -286t253.5 -113q70 0 158 24t135 54v-131q-141 -58 -303 -58q-126 0 -219.5 41t-148.5 116t-81 172t-26 218zM225 596h574q0 56 -9 107.5t-29.5 98.5 t-51 81t-76 54.5t-101.5 20.5q-69 0 -128 -32.5t-97.5 -84.5t-60 -116t-21.5 -129z" />
<glyph unicode="f" horiz-adv-x="622" d="M160 0v1120q0 44 0.5 71t3 69t7.5 68.5t14.5 61.5t23.5 57t35 46t47.5 37t63.5 22t81 9q83 0 121 -21l-8 -113q-42 23 -102 23q-42 0 -72.5 -15.5t-47 -38t-26 -57.5t-11.5 -65t-2 -70l1 -160h235v-110h-235v-934h-129z" />
<glyph unicode="g" horiz-adv-x="1127" d="M100 522q0 122 24.5 220t75 172.5t134.5 114.5t196 40q116 0 187.5 -27.5t138.5 -115.5h4v118h129v-958q0 -113 -26.5 -206t-83 -166.5t-153 -114.5t-226.5 -41t-316 55l11 129q143 -74 307 -74q70 0 124.5 15t92 39t64.5 65t42 82t23.5 101t11 111.5t2.5 123.5h-4 q-94 -205 -317 -205q-96 0 -173.5 32.5t-126.5 84.5t-81.5 122t-46 140t-13.5 143zM242 522q0 -80 17 -151t51 -130.5t94 -94.5t139 -35q83 0 147 37t99.5 98t53 131t17.5 145q0 436 -309 436q-71 0 -126.5 -26.5t-89 -68.5t-55.5 -100.5t-30 -117t-8 -123.5z" />
<glyph unicode="h" horiz-adv-x="1076" d="M162 0v1456h129v-588h4q43 90 128.5 145.5t197.5 55.5q102 0 173 -32t110.5 -94t56 -139t16.5 -179v-625h-129v623q0 59 -5 104.5t-21 90.5t-42.5 74.5t-72 47.5t-107.5 18q-66 0 -119.5 -24t-88.5 -63.5t-58 -92.5t-33 -107.5t-10 -111.5v-559h-129z" />
<glyph unicode="i" horiz-adv-x="455" d="M162 0v1044h129v-1044h-129zM162 1323v172h129v-172h-129z" />
<glyph unicode="j" horiz-adv-x="420" d="M-57 -319q33 -13 77 -13q38 0 65 11t42 27.5t23 45t10 54t2 63.5v1175h129v-1191q0 -140 -52 -217.5t-184 -77.5q-62 0 -112 10v113zM162 1323v172h129v-172h-129z" />
<glyph unicode="k" horiz-adv-x="1046" d="M162 0v1536h129v-920l467 428h166l-510 -462l571 -582h-178l-516 537v-537h-129z" />
<glyph unicode="l" horiz-adv-x="427" d="M162 -10v1476h129v-1476h-129z" />
<glyph unicode="m" horiz-adv-x="1688" d="M154 1044h125v-176l4 -2q42 74 68 103q90 100 257 100q39 0 78 -9.5t81.5 -32t74 -69t43.5 -110.5h4q37 96 126 158.5t208 62.5q155 0 242 -97t87 -253v-719h-129v694q0 264 -221 264q-115 0 -197.5 -98t-82.5 -282v-578h-129v694q0 121 -52.5 192.5t-169.5 71.5 q-115 0 -197.5 -98t-82.5 -282v-578h-129v799q0 162 -8 245z" />
<glyph unicode="n" horiz-adv-x="1112" d="M154 1044h125v-186h4q15 33 30.5 58.5t44 55.5t62.5 50t86 33.5t115 13.5q94 0 164 -30t111 -85t61 -126t20 -160v-668h-129v635q0 323 -248 323q-84 0 -146.5 -34t-96.5 -91.5t-50 -121t-16 -133.5v-578h-129v799q0 162 -8 245z" />
<glyph unicode="o" horiz-adv-x="1175" d="M82 522q0 110 29.5 206.5t87 173.5t153 122t217.5 45t218 -45t153.5 -122t87 -173.5t29.5 -206.5q0 -87 -18 -166t-57 -149t-95 -121.5t-137.5 -81t-180.5 -29.5q-122 0 -217.5 45t-153 122.5t-87 174t-29.5 205.5zM223 522q0 -122 39 -219.5t118.5 -157t188.5 -59.5 q163 0 254.5 123.5t91.5 312.5q0 123 -38.5 220.5t-118 156.5t-189.5 59q-163 0 -254.5 -123.5t-91.5 -312.5z" />
<glyph unicode="p" horiz-adv-x="1162" d="M150 -430v1474h129l-9 -190h4q45 77 81 114q100 101 253 101q112 0 196 -40t134.5 -114.5t75 -172.5t24.5 -220q0 -117 -27.5 -216t-79.5 -173t-135 -116t-188 -42q-121 0 -199 50t-126 153h-4v-608h-129zM279 522q0 -60 10 -118.5t33 -117t57.5 -102t88.5 -71t120 -27.5 q71 0 126.5 26.5t89 68.5t55.5 100.5t30 117t8 123.5t-8 123.5t-30 117t-55.5 100.5t-89 68.5t-126.5 26.5q-82 0 -144.5 -40.5t-97 -106.5t-51 -139t-16.5 -150z" />
<glyph unicode="q" horiz-adv-x="1127" d="M100 522q0 122 24.5 220t75 172.5t134.5 114.5t196 40q40 0 77 -7.5t64 -17.5t53.5 -27.5t42.5 -31t33.5 -34t25 -31t19 -28t11.5 -18.5h4v170h129v-1474h-129v608h-4q-48 -103 -126.5 -153t-199.5 -50q-139 0 -237.5 73t-145.5 195t-47 279zM242 522q0 -65 8 -123.5 t30 -117t55.5 -100.5t89 -68.5t126.5 -26.5q66 0 120 27.5t88 71.5t57.5 102t33.5 116.5t10 118.5t-10 119t-33.5 117t-57.5 102t-88 71t-120 27q-71 0 -126.5 -26.5t-89 -68.5t-55.5 -100.5t-30 -117t-8 -123.5z" />
<glyph unicode="r" horiz-adv-x="724" d="M154 1034h129v-200h4q39 98 107 161.5t161 63.5q46 0 90 -12v-135q-41 12 -94 12q-59 0 -105.5 -25.5t-75 -66.5t-47 -97.5t-25.5 -112t-7 -116.5v-516h-129v811q0 158 -8 233z" />
<glyph unicode="s" horiz-adv-x="810" d="M70 25l12 127q132 -66 272 -66q97 0 164.5 50.5t67.5 135.5q0 50 -27.5 90t-72 67.5t-98 52.5t-107 52t-98 59t-72 81t-27.5 110q0 75 28.5 131.5t77.5 89t108 48.5t126 16q134 0 258 -47l-12 -113q-107 49 -232 49q-108 0 -166.5 -39.5t-58.5 -134.5q0 -39 28.5 -71 t73.5 -56t100 -48t110 -53.5t100 -66t73.5 -92.5t28.5 -125q0 -64 -23 -115.5t-60 -84.5t-85.5 -55.5t-97.5 -32t-99 -9.5q-168 0 -292 50z" />
<glyph unicode="t" horiz-adv-x="726" d="M226 344v972l129 45v-297h237v-110h-237v-676q0 -77 32.5 -124.5t106.5 -47.5q58 0 119 25l8 -107q-73 -29 -158 -29q-34 0 -63 4.5t-51 14.5t-39.5 21t-30 30t-22 35t-15 41.5t-9 45t-5 50.5t-2 52t-0.5 55z" />
<glyph unicode="u" horiz-adv-x="1126" d="M152 377v667h129v-634q0 -324 248 -324q84 0 146.5 34.5t96.5 91.5t50 121t16 134v577h129v-798q0 -162 8 -246h-125v186h-4q-19 -42 -41.5 -74t-61 -66t-98.5 -52.5t-137 -18.5q-94 0 -164 30t-111 85t-61 126.5t-20 160.5z" />
<glyph unicode="v" horiz-adv-x="940" d="M17 1070h140l209 -658l90 -278l84 278l199 658h118l-332 -1088h-142z" />
<glyph unicode="w" horiz-adv-x="1672" d="M14 1064h142l274 -903h4l291 903h156l276 -903h4l289 903h129l-344 -1044h-156l-284 903h-4l-285 -903h-156z" />
<glyph unicode="x" horiz-adv-x="1010" d="M44 1060h159l232 -358l38 -62l36 67l222 353h157l-328 -521l371 -539h-173l-255 367l-40 63l-37 -70l-191 -360h-161l306 536z" />
<glyph unicode="y" horiz-adv-x="975" d="M18 1044h142l293 -870h2l301 870h135l-418 -1200q-21 -61 -43.5 -106.5t-54.5 -89t-75 -67t-95 -23.5q-70 0 -139 16l12 111q45 -17 96 -17q76 0 114.5 54.5t73.5 173.5l27 92z" />
<glyph unicode="z" horiz-adv-x="958" d="M73 105l566 729l69 98h-586v118h752l-1 -114l-564 -726l-71 -98h625v-112h-786z" />
<glyph unicode="{" horiz-adv-x="531" d="M78 582v98q79 0 119.5 77.5t40.5 198.5v344q0 115 59 181.5t149 66.5h113v-98h-102q-46 0 -68 -54t-22 -136v-338q0 -70 -19.5 -126.5t-49.5 -89t-56 -50.5t-47 -23v-4q22 -6 47.5 -23.5t55.5 -50t49.5 -90t19.5 -129.5v-332q0 -83 22 -137.5t68 -54.5h102v-99h-115 q-88 0 -147 67.5t-59 182.5v348q0 118 -40.5 194.5t-119.5 76.5z" />
<glyph unicode="|" horiz-adv-x="637" d="M344 -187v1967h154v-1967h-154z" />
<glyph unicode="}" horiz-adv-x="592" d="M10 -188h103q46 0 68 54.5t22 135.5v338q0 70 19.5 126.5t49.5 89t55.5 50t47.5 23.5v4q-16 4 -36 15t-44.5 34.5t-44.5 55t-33.5 81t-13.5 107.5v331q0 83 -22 138t-68 55h-103v98h115q89 0 148 -67.5t59 -182.5v-348q0 -118 40.5 -194t119.5 -76v-98 q-79 0 -119.5 -77.5t-40.5 -199.5v-344q0 -115 -59 -181.5t-150 -66.5h-113v99z" />
<glyph unicode="~" horiz-adv-x="1314" d="M222 776q31 71 115.5 135t191.5 64q54 0 99.5 -17.5t77.5 -43t62.5 -51t68 -43t79.5 -17.5q131 0 220 125l79 -76q-33 -78 -114.5 -135t-193.5 -57q-54 0 -98.5 18t-76.5 43t-61.5 50.5t-67 43.5t-80.5 18q-124 0 -213 -126z" />
<glyph />
<glyph unicode="&#xa0;" />
<glyph unicode="&#xa1;" horiz-adv-x="516" d="M184 1219q-1 60 35 100.5t87 40.5q45 0 77.5 -35t33.5 -89q1 -58 -36 -99.5t-85 -41.5q-52 0 -81 35t-31 89zM203 -436l18 1307h148l21 -1307h-187z" />
<glyph unicode="&#xa2;" horiz-adv-x="1051" d="M170 553q-1 162 52.5 291t161 210.5t256.5 97.5l6 221h114l-6 -219q78 -4 140 -20.5t91 -36.5l-29 -132q-85 62 -257 62q-150 0 -255.5 -114.5t-111.5 -326.5q-3 -116 24.5 -208.5t77.5 -150t115 -87.5t139 -30q89 0 165.5 24.5t122.5 54.5l35 -96q-47 -44 -125.5 -72 t-170.5 -35l-3 -202h-115l4 204q-135 14 -233.5 91.5t-148 199.5t-49.5 274z" />
<glyph unicode="&#xa3;" horiz-adv-x="1435" d="M141 54q0 57 53.5 95.5t158.5 44.5q2 4 16.5 28t24.5 44t22.5 51.5t19 69t6.5 78.5v299h-183v116h183v177q0 214 125.5 347.5t337.5 133.5q209 0 329 -94l-80 -122q-101 89 -266 89q-55 0 -102.5 -19t-88.5 -60t-64.5 -117t-23.5 -180v-155h385v-116h-384v-105 q0 -381 -106 -490q63 2 135.5 -16t155.5 -37.5t167 -19.5q273 0 273 231q0 51 -25 102.5t-64 70.5l119 61q50 -30 89 -99t39 -145q0 -159 -100 -250t-311 -91q-94 0 -193 20.5t-158 41.5t-130 33.5t-110 -3.5q-28 -32 -73 -55t-91 -23q-31 0 -58.5 18.5t-27.5 45.5z" />
<glyph unicode="&#xa4;" horiz-adv-x="1409" d="M216 277l200 200q-94 119 -94 274q0 153 93 272l-199 200l95 98l203 -205q112 76 249 76q138 0 253 -78l205 204l97 -96l-203 -203q91 -118 91 -268q0 -152 -92 -269l200 -200l-96 -96l-202 202q-113 -78 -253 -78q-136 0 -247 75l-203 -205zM457 751q0 -130 90 -223 t217 -93t216.5 93t89.5 223q0 131 -89.5 223.5t-216.5 92.5t-217 -93t-90 -223z" />
<glyph unicode="&#xa5;" horiz-adv-x="1372" d="M188 1522h182l330 -534l73 -139l69 144l336 529h178l-476 -723h365v-110h-390v-257h390v-110h-390v-322h-166v322h-406v110h406v257h-406v110h374z" />
<glyph unicode="&#xa6;" horiz-adv-x="629" d="M344 -186v831h154v-831h-154zM344 946v834h154v-834h-154z" />
<glyph unicode="&#xa7;" horiz-adv-x="1222" d="M218 783q0 170 140 303q-128 103 -128 256q0 76 29.5 135t75.5 95.5t109.5 59.5t125.5 32t129 9q239 0 361 -73l-33 -127q-112 75 -331 74q-64 0 -117.5 -10t-99 -31t-71 -58t-25.5 -88q0 -53 26 -98t70 -78t101 -63t120.5 -57.5t126.5 -56.5t120 -65.5t101 -79 t70 -101.5t26 -129q0 -152 -116 -276q108 -90 108 -216q0 -75 -30.5 -134t-78.5 -95.5t-113.5 -60.5t-131 -33.5t-134.5 -9.5q-136 0 -251.5 28.5t-169.5 64.5l33 127q49 -36 155 -65.5t236 -28.5q67 0 124.5 10.5t105.5 32.5t75.5 60t27.5 89q0 46 -26 85t-70.5 68 t-102 55.5t-121 51t-127 51t-121 60t-102 72.5t-70.5 94t-26 121zM371 810q0 -65 35 -115.5t100 -87.5t130.5 -64t154.5 -62t144 -64q57 105 57 188q0 58 -25.5 107t-65 82t-99 66t-113.5 55.5t-124.5 54t-118.5 58.5q-75 -122 -75 -218z" />
<glyph unicode="&#xa8;" horiz-adv-x="806" d="M57 1514q0 51 36 85t82 34q99 0 99 -105q0 -54 -34.5 -87t-82.5 -33q-43 0 -71.5 28t-28.5 78zM509 1514q0 51 35.5 85t81.5 34q50 0 74.5 -28t24.5 -77q0 -54 -34.5 -87t-82.5 -33q-43 0 -71 28.5t-28 77.5z" />
<glyph unicode="&#xa9;" horiz-adv-x="2030" d="M204 965q0 177 67.5 337.5t183 276t275 184t336.5 68.5t337 -68.5t275 -184t183 -276t68 -337.5q0 -178 -68 -339t-183 -277.5t-275 -185t-337 -68.5t-336.5 68.5t-275 185t-183 277.5t-67.5 339zM313 965q0 -158 58 -300t157.5 -245.5t240 -164.5t297.5 -61t297.5 61 t240 164.5t157.5 245.5t58 300q0 157 -58 299t-157.5 245t-240 164t-297.5 61t-297.5 -61t-240 -164t-157.5 -245t-58 -299zM627 961q0 105 32 194.5t93 155.5t154 103t209 37q150 0 242 -64l-26 -124q-96 68 -229 68q-152 0 -239.5 -99t-87.5 -260q0 -167 86 -269t230 -102 q137 0 251 66l35 -96q-49 -39 -130.5 -64.5t-175.5 -25.5q-133 0 -236 67t-155.5 175.5t-52.5 237.5z" />
<glyph unicode="&#xaa;" horiz-adv-x="997" d="M139 924q0 174 179 241q151 57 399 57v79q0 103 -49 140.5t-166 37.5q-74 0 -166 -29.5t-130 -56.5l-43 93q34 32 150.5 71.5t221.5 39.5q163 0 248 -66t85 -227v-619h-54h-31.5t-22.5 2.5t-20 8t-9 17t-5 28.5v31q-44 -37 -124 -65.5t-157 -28.5q-138 0 -222 64.5 t-84 181.5zM287 934q0 -67 49.5 -105.5t135.5 -38.5q61 0 133 22.5t112 47.5v268q-238 0 -322 -40q-53 -25 -80.5 -59t-27.5 -95z" />
<glyph unicode="&#xab;" horiz-adv-x="1760" d="M245 542v141l653 448l44 -125l-534 -391l534 -388l-44 -121zM971 542v141l653 448l44 -125l-534 -391l534 -388l-44 -121z" />
<glyph unicode="&#xac;" horiz-adv-x="1350" d="M235 726v126h990v-529h-152v403h-838z" />
<glyph unicode="&#xad;" horiz-adv-x="1229" d="M157 705v135h856v-135h-856z" />
<glyph unicode="&#xae;" horiz-adv-x="2030" d="M204 965q0 177 67.5 337.5t183 276t275 184t336.5 68.5t337 -68.5t275 -184t183 -276t68 -337.5q0 -178 -68 -339t-183 -277.5t-275 -185t-337 -68.5t-336.5 68.5t-275 185t-183 277.5t-67.5 339zM313 965q0 -158 58 -300t157.5 -245.5t240 -164.5t297.5 -61t297.5 61 t240 164.5t157.5 245.5t58 300q0 157 -58 299t-157.5 245t-240 164t-297.5 61t-297.5 -61t-240 -164t-157.5 -245t-58 -299zM752 482v962h74q41 0 124 3t126 3q178 0 267.5 -75t89.5 -194q0 -248 -220 -298q40 -25 70.5 -69.5t64.5 -115.5t45 -90q15 -27 83 -126l-156 1 q-20 24 -62 105q-8 16 -34.5 73t-43.5 88.5t-50.5 67t-70.5 46.5h-172v-381h-135zM887 964q33 -3 174 -3q115 2 173.5 50.5t58.5 152.5q0 92 -60 140t-194 45q-71 -2 -152 -10v-375z" />
<glyph unicode="&#xaf;" horiz-adv-x="553" d="M50 1452v124h543v-124h-543z" />
<glyph unicode="&#xb0;" horiz-adv-x="903" d="M121 1278q0 143 95.5 237t237.5 94q140 0 236.5 -95t96.5 -236q0 -143 -95.5 -237t-237.5 -94q-139 0 -236 95.5t-97 235.5zM232 1278q0 -96 64.5 -162t157.5 -66q95 0 159 65t64 163q0 96 -65 161.5t-158 65.5q-94 0 -158 -64.5t-64 -162.5z" />
<glyph unicode="&#xb1;" horiz-adv-x="1226" d="M232 706v134h237l163 -8l-5 171v244h136v-244l-6 -171l149 8h255v-134h-255l-149 5l6 -172v-251h-136v251l5 172l-163 -5h-237zM251 0v126h890v-126h-890z" />
<glyph unicode="&#xb2;" horiz-adv-x="1106" d="M177 1501q51 79 160.5 137.5t242.5 58.5q176 0 267.5 -88t90.5 -215q-1 -112 -65.5 -221.5t-167.5 -199t-245 -172.5l545 4v-126h-774l-33 86q91 44 186 108t185.5 143.5t148 173t57.5 177.5q0 103 -58 156t-165 53q-180 0 -305 -159z" />
<glyph unicode="&#xb3;" horiz-adv-x="1102" d="M255 1591q56 46 149 75.5t161 32.5q169 5 260.5 -63t91.5 -174q0 -88 -54.5 -158t-161.5 -114q74 -2 131.5 -26t90 -62t49 -81t16.5 -88q0 -152 -115 -248.5t-336 -96.5q-108 0 -229 38l-10 110q116 -35 225 -34q157 1 230 62t74 162q1 89 -64.5 144t-178.5 56l-119 -33 l-29 98q77 16 167 52q165 66 161 202q-2 64 -58 106.5t-157 36.5q-61 -4 -128.5 -28t-117.5 -61z" />
<glyph unicode="&#xb4;" horiz-adv-x="473" d="M50 1383q233 254 337 398l120 -103q-49 -73 -175.5 -196t-195.5 -167z" />
<glyph unicode="&#xb5;" horiz-adv-x="1352" d="M216 -371v1511h166v-756q0 -137 66 -202.5t197 -66.5q76 0 155 39t133 81v905h166v-912q0 -63 9.5 -85t31.5 -22q41 0 90 42l24 -76q-17 -29 -73.5 -64.5t-117.5 -35.5q-113 0 -108 151q-151 -154 -324 -154q-97 0 -167.5 28.5t-115.5 100.5l24 -484h-156z" />
<glyph unicode="&#xb6;" horiz-adv-x="1222" d="M91 1277q0 201 143 317.5t415 116.5q51 0 222.5 -10.5t222.5 -11.5v-1689h-140v1579q-6 0 -72 2l-132 4t-78 1v-1586h-140v832q-225 0 -333 107.5t-108 337.5z" />
<glyph unicode="&#xb7;" horiz-adv-x="532" d="M179 731q-1 58 36 99.5t86 41.5q52 0 80.5 -35t30.5 -89q1 -60 -35 -100.5t-87 -40.5q-45 0 -77.5 35t-33.5 89z" />
<glyph unicode="&#xb8;" horiz-adv-x="505" d="M48 -436l12 109q28 -18 90 -18q132 0 143 165q9 128 -25 201l64 4l34 -4q60 -79 51 -253q-7 -119 -70.5 -175.5t-158.5 -56.5q-38 0 -80.5 8t-59.5 20z" />
<glyph unicode="&#xb9;" horiz-adv-x="766" d="M208 1494q80 23 191 88.5t159 105.5l82 -21v-1005h-161v825q-29 -7 -106 -40t-133 -45z" />
<glyph unicode="&#xba;" horiz-adv-x="1033" d="M114 1148q1 94 26.5 171.5t67 128t96 85t112 49.5t117.5 15q185 0 287 -127t99 -340q-2 -118 -37.5 -208.5t-94 -142.5t-128.5 -78t-148 -26q-187 0 -293.5 128t-103.5 345zM273 1148q-1 -166 65 -263t181 -96q112 1 176.5 83.5t65.5 256.5q1 167 -61 262t-175 94 q-110 -1 -180.5 -83t-71.5 -254z" />
<glyph unicode="&#xbb;" horiz-adv-x="1760" d="M262 227l534 388l-534 391l44 125l653 -448v-141l-653 -436zM988 227l534 388l-534 391l44 125l653 -448v-141l-653 -436z" />
<glyph unicode="&#xbc;" horiz-adv-x="2303" d="M216 1494q80 23 191 88.5t159 105.5l82 -21v-1005h-161v825q-29 -7 -106 -40t-133 -45zM763 0l539 1530h152l-541 -1530h-150zM1333 299l474 832h52l99 -59l-384 -629l-56 -100h397v2l6 280l149 16v-298h192l1 -116h-193v-283h-156v283h-540z" />
<glyph unicode="&#xbd;" horiz-adv-x="2331" d="M216 1494q80 23 191 88.5t159 105.5l82 -21v-1005h-161v825q-29 -7 -106 -40t-133 -45zM764 0l539 1530h152l-541 -1530h-150zM1448 819q51 79 160.5 137.5t242.5 58.5q176 0 267.5 -88t90.5 -215q-1 -112 -65.5 -221.5t-167.5 -199t-245 -172.5l545 4v-126h-774l-33 86 q91 44 186 108t185.5 143.5t148 173t57.5 177.5q0 103 -58 156t-165 53q-181 0 -305 -159z" />
<glyph unicode="&#xbe;" horiz-adv-x="2303" d="M107 1591q56 46 149 75.5t161 32.5q169 5 260.5 -63t91.5 -174q0 -88 -54.5 -158t-161.5 -114q74 -2 131.5 -26t90 -62t49 -81t16.5 -88q0 -152 -115 -248.5t-336 -96.5q-108 0 -229 38l-10 110q116 -35 225 -34q157 1 230 62t74 162q1 89 -64.5 144t-178.5 56l-119 -33 l-29 98q77 16 167 52q165 66 161 202q-2 64 -58 106.5t-157 36.5q-61 -4 -128.5 -28t-117.5 -61zM763 0l539 1530h152l-541 -1530h-150zM1333 299l474 832h52l99 -59l-384 -629l-56 -100h397v2l6 280l149 16v-298h192l1 -116h-193v-283h-156v283h-540z" />
<glyph unicode="&#xbf;" horiz-adv-x="851" d="M120 243q8 63 38 117t71 92t88.5 72t94.5 63.5t85.5 58t63.5 63t28 73.5q3 44 -6.5 97t-19 83t-31.5 96l127 1q33 -44 61.5 -128.5t30.5 -165.5q1 -62 -43 -117t-109.5 -98t-132 -85.5t-118.5 -97.5t-61 -115q-30 -200 87 -312t355 -112q125 0 183 24v-123 q-16 -13 -80.5 -27.5t-128.5 -14.5q-134 0 -240.5 30.5t-175 83t-110.5 124t-55 151.5t-2 167zM429 1402q-1 59 35 98.5t85 39.5q43 0 75 -34t33 -87q1 -56 -35.5 -96.5t-83.5 -40.5q-51 0 -79 34t-30 86z" />
<glyph unicode="&#xc0;" horiz-adv-x="1366" d="M29 0l587 1434h152l569 -1434h-140l-165 381h-719l-145 -381h-139zM369 504h622l-309 801zM471 1770h155l181 -281h-90z" />
<glyph unicode="&#xc1;" horiz-adv-x="1366" d="M31 0l587 1423h172l535 -1423h-139l-146 377l-718 6l-152 -383h-139zM371 510l614 -6l-303 782zM578 1485l194 291h152l-242 -291h-104z" />
<glyph unicode="&#xc2;" horiz-adv-x="1352" d="M13 0l588 1438h166l574 -1438h-163l-147 378h-705l-153 -378h-160zM326 1564l277 298h149l280 -296l-110 -47l-244 223l-248 -223zM372 505h615l-264 665l-38 120l-38 -121z" />
<glyph unicode="&#xc3;" horiz-adv-x="1360" d="M13 0l588 1438h166l574 -1438h-163l-147 378h-705l-153 -378h-160zM268 1667q32 73 109.5 125t157.5 52q46 0 83 -15.5t61 -37.5t46.5 -44t50.5 -37.5t61 -15.5q97 0 186 105l67 -56q-33 -73 -110.5 -124.5t-156.5 -51.5q-46 0 -83 16t-61 38.5t-46.5 45t-51 38.5 t-62.5 16q-96 0 -185 -108zM372 505h615l-264 665l-38 120l-38 -121z" />
<glyph unicode="&#xc4;" horiz-adv-x="1360" d="M13 0l588 1438h166l574 -1438h-163l-147 378h-705l-153 -378h-160zM306 1718q0 54 36.5 89t84.5 35q52 0 78 -29t26 -80q0 -56 -35 -89.5t-86 -33.5q-45 0 -74.5 28.5t-29.5 79.5zM372 505h615l-264 665l-38 120l-38 -121zM785 1718q0 54 36.5 89t84.5 35q52 0 78.5 -29 t26.5 -80q0 -56 -35.5 -89.5t-85.5 -33.5q-45 0 -75 28.5t-30 79.5z" />
<glyph unicode="&#xc5;" horiz-adv-x="1437" d="M33 0l561 1469q-99 23 -153.5 88.5t-52.5 163.5q1 66 28 116.5t72.5 78.5t98.5 42t112 14q144 0 226.5 -65.5t81.5 -187.5q-1 -99 -54 -160.5t-142 -85.5l550 -1473h-183l-147 418h-665l-153 -418h-180zM412 545h575l-244 695l-38 120l-38 -121zM507 1721q-1 -76 49 -120 t139 -45q87 -1 140.5 38.5t53.5 123.5q0 76 -52 117t-139 42q-81 0 -135.5 -36.5t-55.5 -119.5z" />
<glyph unicode="&#xc6;" horiz-adv-x="1788" d="M-55 0l731 1522h1034v-131h-702v-541h526v-131h-526v-586h776v-133h-945v417h-506l-199 -417h-189zM393 544h446v866h-32z" />
<glyph unicode="&#xc7;" horiz-adv-x="1199" d="M107 754q0 148 35.5 274.5t99.5 219.5t151 159t191 98.5t219 32.5q80 0 152 -7.5t108.5 -15.5t82.5 -20.5t54 -14.5l-24 -150q-2 1 -42.5 16.5t-72.5 25t-101 19t-148 9.5q-242 0 -389.5 -167.5t-147.5 -466.5q0 -187 61 -332.5t182 -230.5t284 -85q128 0 236.5 28.5 t158.5 61.5l2 -144q-1 -1 -60.5 -21.5t-83 -27t-83.5 -17t-123 -12.5q38 -83 30 -218q-7 -119 -70.5 -175.5t-158.5 -56.5q-38 0 -80.5 8t-59.5 20l12 109q28 -18 90 -18q133 0 143 165q7 106 -12 166q-291 18 -463.5 227t-172.5 541z" />
<glyph unicode="&#xc8;" horiz-adv-x="1140" d="M176 0v1430h701v-123h-560v-510h531v-123h-531v-551h584v-123h-725zM315 1863l111 102q28 -31 168 -157.5t179 -157.5l-71 -71q-87 44 -203 128t-184 156z" />
<glyph unicode="&#xc9;" horiz-adv-x="1095" d="M176 0v1430h701v-123h-560v-510h531v-123h-531v-551h584v-123h-725zM423 1620q39 31 179 157.5t168 157.5l111 -102q-80 -80 -187.5 -159.5t-198.5 -124.5z" />
<glyph unicode="&#xca;" horiz-adv-x="1085" d="M176 0v1430h701v-123h-560v-510h531v-123h-531v-551h584v-123h-725zM191 1644l277 298h149l280 -296l-110 -47l-244 223l-248 -223z" />
<glyph unicode="&#xcb;" horiz-adv-x="1080" d="M176 0v1430h701v-123h-560v-510h531v-123h-531v-551h584v-123h-725zM201 1698q0 54 36.5 89t84.5 35q52 0 78 -29t26 -80q0 -56 -35 -89.5t-86 -33.5q-45 0 -74.5 28.5t-29.5 79.5zM680 1698q0 54 36.5 89t84.5 35q52 0 78.5 -29t26.5 -80q0 -56 -35.5 -89.5t-85.5 -33.5 q-45 0 -75 28.5t-30 79.5z" />
<glyph unicode="&#xcc;" horiz-adv-x="463" d="M-121 1833l111 102q28 -31 168 -157.5t179 -157.5l-71 -71q-87 44 -203 128t-184 156zM151 0v1432h151v-1432h-151z" />
<glyph unicode="&#xcd;" horiz-adv-x="603" d="M118 1570q39 31 179 157.5t168 157.5l111 -102q-80 -80 -187.5 -159.5t-198.5 -124.5zM151 0v1432h151v-1432h-151z" />
<glyph unicode="&#xce;" horiz-adv-x="497" d="M-52 1560l220 255h118l222 -254l-88 -40l-193 191l-197 -191zM151 0v1432h151v-1432h-151z" />
<glyph unicode="&#xcf;" horiz-adv-x="466" d="M-92 1677q0 44 31.5 73t74.5 29q45 0 68 -24t23 -65q0 -46 -31 -73.5t-75 -27.5q-39 0 -65 23.5t-26 64.5zM151 0v1432h151v-1432h-151zM327 1677q0 44 32 73t74 29q46 0 69 -24t23 -65q0 -46 -31 -73.5t-75 -27.5q-40 0 -66 23.5t-26 64.5z" />
<glyph unicode="&#xd0;" horiz-adv-x="1494" d="M62 737v114h144v671q6 0 59.5 0.5t60.5 0.5q41 0 157 6.5t181 6.5q357 0 538.5 -190t181.5 -541q-1 -250 -87 -435.5t-254.5 -287.5t-402.5 -98q-43 1 -157.5 7t-165.5 7q-11 0 -60 1t-51 1v737h-144zM375 128q138 -20 290 -18q122 2 220 42.5t170.5 121t112 209 t40.5 297.5q1 330 -143.5 481.5t-440.5 151.5q-111 0 -249 -14v-548h434v-114h-434v-609z" />
<glyph unicode="&#xd1;" horiz-adv-x="1361" d="M158 0v1430h178l727 -1258h4v1258h141v-1430h-190l-715 1233h-4v-1233h-141zM287 1647q32 73 109.5 125t157.5 52q46 0 83 -15.5t61 -37.5t46.5 -44t50.5 -37.5t61 -15.5q97 0 186 105l67 -56q-33 -73 -110.5 -124.5t-156.5 -51.5q-46 0 -83 16t-61 38.5t-46.5 45 t-51 38.5t-62.5 16q-96 0 -185 -108z" />
<glyph unicode="&#xd2;" horiz-adv-x="1558" d="M111 769q4 185 59 332.5t150 241.5t219.5 144t270.5 51q301 2 479.5 -211t171.5 -563q-4 -185 -56.5 -333t-143.5 -244t-213.5 -148t-267.5 -55q-206 -4 -360.5 96.5t-233.5 279.5t-75 409zM282 758q-1 -132 31.5 -248t94 -205t159 -140.5t218.5 -50.5q230 2 367 173.5 t138 484.5q1 133 -30.5 248t-91 202.5t-153.5 137.5t-211 49q-110 -1 -204 -42.5t-165 -120.5t-111.5 -204.5t-41.5 -283.5zM470 1873l111 102q28 -31 168 -157.5t179 -157.5l-71 -71q-87 44 -203 128t-184 156z" />
<glyph unicode="&#xd3;" horiz-adv-x="1563" d="M111 769q4 185 59 332.5t150 241.5t219.5 144t270.5 51q301 2 479.5 -211t171.5 -563q-4 -185 -56.5 -333t-143.5 -244t-213.5 -148t-267.5 -55q-206 -4 -360.5 96.5t-233.5 279.5t-75 409zM282 758q-1 -132 31.5 -248t94 -205t159 -140.5t218.5 -50.5q230 2 367 173.5 t138 484.5q1 133 -30.5 248t-91 202.5t-153.5 137.5t-211 49q-110 -1 -204 -42.5t-165 -120.5t-111.5 -204.5t-41.5 -283.5zM689 1660q39 31 179 157.5t168 157.5l111 -102q-80 -80 -187.5 -159.5t-198.5 -124.5z" />
<glyph unicode="&#xd4;" horiz-adv-x="1562" d="M111 769q4 185 59 332.5t150 241.5t219.5 144t270.5 51q301 2 479.5 -211t171.5 -563q-4 -185 -56.5 -333t-143.5 -244t-213.5 -148t-267.5 -55q-206 -4 -360.5 96.5t-233.5 279.5t-75 409zM282 758q-1 -132 31.5 -248t94 -205t159 -140.5t218.5 -50.5q230 2 367 173.5 t138 484.5q1 133 -30.5 248t-91 202.5t-153.5 137.5t-211 49q-110 -1 -204 -42.5t-165 -120.5t-111.5 -204.5t-41.5 -283.5zM457 1684l277 298h149l280 -296l-110 -47l-244 223l-248 -223z" />
<glyph unicode="&#xd5;" horiz-adv-x="1563" d="M111 769q4 185 59 332.5t150 241.5t219.5 144t270.5 51q301 2 479.5 -211t171.5 -563q-4 -185 -56.5 -333t-143.5 -244t-213.5 -148t-267.5 -55q-206 -4 -360.5 96.5t-233.5 279.5t-75 409zM282 758q-1 -132 31.5 -248t94 -205t159 -140.5t218.5 -50.5q230 2 367 173.5 t138 484.5q1 133 -30.5 248t-91 202.5t-153.5 137.5t-211 49q-110 -1 -204 -42.5t-165 -120.5t-111.5 -204.5t-41.5 -283.5zM399 1767q32 73 109.5 125t157.5 52q46 0 83 -15.5t61 -37.5t46.5 -44t50.5 -37.5t61 -15.5q97 0 186 105l67 -56q-33 -73 -110 -124.5t-157 -51.5 q-46 0 -83 16t-61 38.5t-46.5 45t-51 38.5t-62.5 16q-96 0 -185 -108z" />
<glyph unicode="&#xd6;" horiz-adv-x="1563" d="M111 769q4 185 59 332.5t150 241.5t219.5 144t270.5 51q301 2 479.5 -211t171.5 -563q-4 -185 -56.5 -333t-143.5 -244t-213.5 -148t-267.5 -55q-206 -4 -360.5 96.5t-233.5 279.5t-75 409zM282 758q-1 -132 31.5 -248t94 -205t159 -140.5t218.5 -50.5q230 2 367 173.5 t138 484.5q1 133 -30.5 248t-91 202.5t-153.5 137.5t-211 49q-110 -1 -204 -42.5t-165 -120.5t-111.5 -204.5t-41.5 -283.5zM457 1798q0 54 36.5 89t84.5 35q52 0 78 -29t26 -80q0 -56 -35 -89.5t-86 -33.5q-45 0 -74.5 28.5t-29.5 79.5zM936 1798q0 54 36.5 89t84.5 35 q52 0 78.5 -29t26.5 -80q0 -56 -35.5 -89.5t-85.5 -33.5q-45 0 -75 28.5t-30 79.5z" />
<glyph unicode="&#xd7;" horiz-adv-x="1225" d="M250 424l348 347l-348 356l99 97l337 -362l336 362l99 -97l-348 -353l348 -350l-99 -98l-336 354l-337 -354z" />
<glyph unicode="&#xd8;" horiz-adv-x="1558" d="M111 769q4 185 59 332.5t150 241.5t219.5 144t270.5 51q101 0 193 -26l78 218l96 -28l-81 -225q177 -84 273 -270.5t92 -442.5q-4 -185 -56.5 -333t-143.5 -244t-213.5 -148t-267.5 -55q-115 -2 -211 27l-74 -205l-96 27l77 215q-177 88 -273.5 278.5t-91.5 442.5z M282 758q-1 -187 62 -338t183 -232l430 1197q-71 24 -153 24q-111 -1 -204.5 -42.5t-164.5 -121t-111.5 -204.5t-41.5 -283zM616 142q79 -29 169 -28q230 2 367 173.5t138 484.5q1 189 -62 340t-181 228z" />
<glyph unicode="&#xd9;" horiz-adv-x="1420" d="M171 644v879h169l-1 -839q0 -163 27 -274.5t82 -175t127.5 -90.5t173.5 -27q75 0 133 17t107 57.5t80.5 105t49 162t17.5 226.5v837h168v-877q0 -661 -560 -661q-296 0 -434.5 166t-138.5 494zM410 1873l111 102q28 -31 168 -157.5t179 -157.5l-71 -71q-87 44 -203 128 t-184 156z" />
<glyph unicode="&#xda;" horiz-adv-x="1420" d="M171 644v879h169l-1 -839q0 -163 27 -274.5t82 -175t127.5 -90.5t173.5 -27q75 0 133 17t107 57.5t80.5 105t49 162t17.5 226.5v837h168v-877q0 -661 -560 -661q-296 0 -434.5 166t-138.5 494zM629 1660q39 31 179 157.5t168 157.5l111 -102q-80 -80 -187.5 -159.5 t-198.5 -124.5z" />
<glyph unicode="&#xdb;" horiz-adv-x="1420" d="M171 644v879h169l-1 -839q0 -163 27 -274.5t82 -175t127.5 -90.5t173.5 -27q75 0 133 17t107 57.5t80.5 105t49 162t17.5 226.5v837h168v-877q0 -661 -560 -661q-296 0 -434.5 166t-138.5 494zM396 1684l277 298h149l280 -296l-110 -47l-244 223l-248 -223z" />
<glyph unicode="&#xdc;" horiz-adv-x="1420" d="M171 644v879h169l-1 -839q0 -163 27 -274.5t82 -175t127.5 -90.5t173.5 -27q75 0 133 17t107 57.5t80.5 105t49 162t17.5 226.5v837h168v-877q0 -661 -560 -661q-296 0 -434.5 166t-138.5 494zM396 1798q0 54 36.5 89t84.5 35q52 0 78 -29t26 -80q0 -56 -35 -89.5 t-86 -33.5q-45 0 -74.5 28.5t-29.5 79.5zM875 1798q0 54 36.5 89t84.5 35q52 0 78.5 -29t26.5 -80q0 -56 -35.5 -89.5t-85.5 -33.5q-45 0 -75 28.5t-30 79.5z" />
<glyph unicode="&#xdd;" horiz-adv-x="1234" d="M31 1522h181l374 -701l51 -115l44 115l359 701h179l-499 -935v-587h-172v584zM526 1660q39 31 179 157.5t168 157.5l111 -102q-80 -80 -187.5 -159.5t-198.5 -124.5z" />
<glyph unicode="&#xde;" horiz-adv-x="1248" d="M206 0v1522h169v-292q24 2 88.5 7t113.5 8t91 3q248 0 382.5 -112.5t134.5 -343.5q0 -245 -149.5 -372.5t-418.5 -127.5q-50 0 -242 12v-304h-169zM375 429q106 -14 225 -14q198 0 307 86.5t109 288.5q0 345 -403 336q-122 -2 -238 -22v-675z" />
<glyph unicode="&#xdf;" horiz-adv-x="1312" d="M44 1014v99l160 30q38 218 177 327t336 109q72 0 136.5 -16.5t116 -49t82 -85.5t30.5 -120q0 -65 -23.5 -121t-56.5 -94t-66 -72t-56.5 -71.5t-23.5 -75.5q0 -41 20.5 -77.5t53 -65.5t72.5 -59t79.5 -64.5t72 -74.5t53 -97.5t20.5 -124.5q0 -86 -35 -151.5t-93.5 -102.5 t-125.5 -55t-140 -18q-153 0 -231 33v132q89 -47 237 -47q91 0 155 48.5t64 142.5q0 50 -20 93.5t-51.5 76.5t-69.5 64t-76 64t-69.5 69t-51 86t-19.5 109q0 50 22 94.5t53.5 79.5t63.5 71t54 84t22 103q0 89 -63.5 131t-163.5 42q-154 0 -242.5 -116t-88.5 -369v-975h-167 v986v28h-147z" />
<glyph unicode="&#xe0;" horiz-adv-x="1029" d="M82 270q0 73 22.5 131t57 95.5t90 65t106.5 41.5t122.5 22t122.5 10t122 2h25v53q0 137 -55 202.5t-183 65.5q-174 0 -307 -86v125q61 30 150 51t157 21q193 0 280 -92.5t87 -296.5v-461q0 -147 10 -219h-127v168h-4q-42 -90 -136 -141.5t-196 -51.5q-85 0 -149.5 22 t-100.5 54t-58 75t-29 77t-7 67zM192 1577l120 103q93 -121 337 -398l-85 -68q-75 50 -194.5 165t-177.5 198zM223 274q0 -97 60.5 -142.5t156.5 -45.5q62 0 112 15.5t82 38.5t55 59.5t34.5 67.5t18 72.5t7.5 66t1 57.5v63h-37q-55 0 -98.5 -2t-96 -8t-92.5 -16.5t-80 -29.5 t-65.5 -45t-41.5 -64.5t-16 -86.5z" />
<glyph unicode="&#xe1;" horiz-adv-x="1037" d="M82 270q0 73 22.5 131t57 95.5t90 65t106.5 41.5t122.5 22t122.5 10t122 2h25v53q0 137 -55 202.5t-183 65.5q-174 0 -307 -86v125q61 30 150 51t157 21q193 0 280 -92.5t87 -296.5v-461q0 -147 10 -219h-127v168h-4q-42 -90 -136 -141.5t-196 -51.5q-85 0 -149.5 22 t-100.5 54t-58 75t-29 77t-7 67zM223 274q0 -97 60.5 -142.5t156.5 -45.5q62 0 112 15.5t82 38.5t55 59.5t34.5 67.5t18 72.5t7.5 66t1 57.5v63h-37q-55 0 -98.5 -2t-96 -8t-92.5 -16.5t-80 -29.5t-65.5 -45t-41.5 -64.5t-16 -86.5zM387 1258q233 254 337 398l120 -103 q-49 -73 -175.5 -196t-195.5 -167z" />
<glyph unicode="&#xe2;" horiz-adv-x="1037" d="M82 270q0 73 22.5 131t57 95.5t90 65t106.5 41.5t122.5 22t122.5 10t122 2h25v53q0 137 -55 202.5t-183 65.5q-174 0 -307 -86v125q61 30 150 51t157 21q193 0 280 -92.5t87 -296.5v-461q0 -147 10 -219h-127v168h-4q-42 -90 -136 -141.5t-196 -51.5q-85 0 -149.5 22 t-100.5 54t-58 75t-29 77t-7 67zM223 274q0 -97 60.5 -142.5t156.5 -45.5q62 0 112 15.5t82 38.5t55 59.5t34.5 67.5t18 72.5t7.5 66t1 57.5v63h-37q-55 0 -98.5 -2t-96 -8t-92.5 -16.5t-80 -29.5t-65.5 -45t-41.5 -64.5t-16 -86.5zM232 1255l227 269h114l222 -268l-78 -34 l-201 204l-210 -204z" />
<glyph unicode="&#xe3;" horiz-adv-x="1029" d="M82 270q0 73 22.5 131t57 95.5t90 65t106.5 41.5t122.5 22t122.5 10t122 2h25v53q0 137 -55 202.5t-183 65.5q-174 0 -307 -86v125q61 30 150 51t157 21q193 0 280 -92.5t87 -296.5v-461q0 -147 10 -219h-127v168h-4q-42 -90 -136 -141.5t-196 -51.5q-85 0 -149.5 22 t-100.5 54t-58 75t-29 77t-7 67zM204 1365q26 62 80 108.5t117 46.5q35 0 63.5 -13.5t47 -32.5t35.5 -38t39 -32.5t47 -13.5q78 0 146 91l51 -49q-29 -65 -81 -109t-116 -44q-45 0 -79.5 20.5t-52 44.5t-44 44.5t-57.5 20.5q-78 0 -146 -91zM223 274q0 -97 60.5 -142.5 t156.5 -45.5q62 0 112 15.5t82 38.5t55 59.5t34.5 67.5t18 72.5t7.5 66t1 57.5v63h-37q-55 0 -98.5 -2t-96 -8t-92.5 -16.5t-80 -29.5t-65.5 -45t-41.5 -64.5t-16 -86.5z" />
<glyph unicode="&#xe4;" horiz-adv-x="1013" d="M82 270q0 73 22.5 131t57 95.5t90 65t106.5 41.5t122.5 22t122.5 10t122 2h25v53q0 137 -55 202.5t-183 65.5q-174 0 -307 -86v125q61 30 150 51t157 21q193 0 280 -92.5t87 -296.5v-461q0 -147 10 -219h-127v168h-4q-42 -90 -136 -141.5t-196 -51.5q-85 0 -149.5 22 t-100.5 54t-58 75t-29 77t-7 67zM159 1424q0 51 36 85t82 34q99 0 99 -105q0 -54 -34.5 -87t-82.5 -33q-43 0 -71.5 28t-28.5 78zM223 274q0 -97 60.5 -142.5t156.5 -45.5q62 0 112 15.5t82 38.5t55 59.5t34.5 67.5t18 72.5t7.5 66t1 57.5v63h-37q-55 0 -98.5 -2t-96 -8 t-92.5 -16.5t-80 -29.5t-65.5 -45t-41.5 -64.5t-16 -86.5zM611 1424q0 51 35.5 85t81.5 34q50 0 74.5 -28t24.5 -77q0 -54 -34.5 -87t-82.5 -33q-43 0 -71 28.5t-28 77.5z" />
<glyph unicode="&#xe5;" horiz-adv-x="1013" d="M82 270q0 73 22.5 131t57 95.5t90 65t106.5 41.5t122.5 22t122.5 10t122 2h25v53q0 137 -55 202.5t-183 65.5q-174 0 -307 -86v125q61 30 150 51t157 21q193 0 280 -92.5t87 -296.5v-461q0 -147 10 -219h-127v168h-4q-42 -90 -136 -141.5t-196 -51.5q-85 0 -149.5 22 t-100.5 54t-58 75t-29 77t-7 67zM223 274q0 -97 60.5 -142.5t156.5 -45.5q62 0 112 15.5t82 38.5t55 59.5t34.5 67.5t18 72.5t7.5 66t1 57.5v63h-37q-55 0 -98.5 -2t-96 -8t-92.5 -16.5t-80 -29.5t-65.5 -45t-41.5 -64.5t-16 -86.5zM265 1471q2 106 76 159.5t177 53.5 q117 0 184 -56.5t66 -157.5q-1 -108 -74 -165t-180 -57q-115 0 -183 61t-66 162zM362 1471q-1 -64 40 -103t113 -39q70 -1 113.5 34.5t43.5 105.5q0 64 -42.5 100t-112.5 36q-64 1 -109 -32t-46 -102z" />
<glyph unicode="&#xe6;" horiz-adv-x="1810" d="M110 301q0 110 64 189.5t182 124.5q171 67 443 67v119q0 74 -17 121t-53 70t-77 30.5t-105 7.5q-81 0 -185.5 -32t-157.5 -67l-42 112q49 31 178 72.5t248 41.5q136 0 218.5 -40t117.5 -142q138 178 389 181q181 2 292.5 -115.5t115.5 -312.5q2 -124 -8 -175h-748 q0 -7 0.5 -20t0.5 -20q15 -402 374 -402q77 0 172.5 23t140.5 52l33 -97q-56 -46 -168 -75.5t-220 -29.5q-283 0 -409 204q-75 -93 -185 -148.5t-243 -55.5q-155 0 -253 85.5t-98 231.5zM278 314q0 -94 54.5 -149.5t170.5 -55.5q104 0 201 54.5t140 118.5q-43 117 -43 283 v10q-93 0 -191 -13.5t-162 -39.5q-88 -35 -129 -85t-41 -123zM972 665h592q6 110 -16 190.5t-84 131t-162 50.5q-133 0 -220.5 -91.5t-109.5 -280.5z" />
<glyph unicode="&#xe7;" horiz-adv-x="985" d="M106 553q0 130 35.5 240t102.5 191t169.5 126.5t230.5 45.5q93 0 168 -18t109 -41l-29 -132q-85 62 -257 62q-150 0 -255.5 -114.5t-111.5 -326.5q-3 -116 24.5 -208.5t77.5 -150t115 -87.5t139 -30q89 0 165.5 24.5t122.5 54.5l35 -96q-50 -46 -134 -75t-182 -33 q37 -83 30 -217q-7 -119 -70.5 -175.5t-158.5 -56.5q-38 0 -80.5 8t-59.5 20l12 109q28 -18 90 -18q132 0 143 165q7 111 -13 169q-196 26 -307 180.5t-111 383.5z" />
<glyph unicode="&#xe8;" horiz-adv-x="1037" d="M84 522q0 241 121.5 394t318.5 153q86 0 156 -27t118 -74.5t80.5 -113.5t47 -141.5t14.5 -161.5v-66h-715q0 -173 90.5 -286t253.5 -113q70 0 158 24t135 54v-131q-141 -58 -303 -58q-126 0 -219.5 41t-148.5 116t-81 172t-26 218zM222 1598l120 103q93 -121 337 -398 l-85 -68q-75 50 -194.5 165t-177.5 198zM225 596h574q0 56 -9 107.5t-29.5 98.5t-51 81t-76 54.5t-101.5 20.5q-69 0 -128 -32.5t-97.5 -84.5t-60 -116t-21.5 -129z" />
<glyph unicode="&#xe9;" horiz-adv-x="1086" d="M84 522q0 241 121.5 394t318.5 153q86 0 156 -27t118 -74.5t80.5 -113.5t47 -141.5t14.5 -161.5v-66h-715q0 -173 90.5 -286t253.5 -113q70 0 158 24t135 54v-131q-141 -58 -303 -58q-126 0 -219.5 41t-148.5 116t-81 172t-26 218zM225 596h574q0 56 -9 107.5t-29.5 98.5 t-51 81t-76 54.5t-101.5 20.5q-69 0 -128 -32.5t-97.5 -84.5t-60 -116t-21.5 -129zM432 1283q233 254 337 398l120 -103q-49 -73 -175.5 -196t-195.5 -167z" />
<glyph unicode="&#xea;" horiz-adv-x="1093" d="M84 522q0 241 121.5 394t318.5 153q86 0 156 -27t118 -74.5t80.5 -113.5t47 -141.5t14.5 -161.5v-66h-715q0 -173 90.5 -286t253.5 -113q70 0 158 24t135 54v-131q-141 -58 -303 -58q-126 0 -219.5 41t-148.5 116t-81 172t-26 218zM225 596h574q0 56 -9 107.5t-29.5 98.5 t-51 81t-76 54.5t-101.5 20.5q-69 0 -128 -32.5t-97.5 -84.5t-60 -116t-21.5 -129zM238 1241l237 290h119l232 -289l-82 -37l-210 220l-219 -220z" />
<glyph unicode="&#xeb;" horiz-adv-x="1089" d="M104 565q0 263 135 425.5t376 165.5q181 2 293 -115.5t116 -312.5q3 -112 -9 -175h-748q0 -7 0.5 -20t0.5 -20q8 -210 108 -306.5t268 -96.5q77 0 171 23t139 53l32 -97q-55 -46 -166 -75.5t-219 -29.5q-239 0 -368 153t-129 428zM270 1514q0 51 36 85t82 34 q99 0 99 -105q0 -54 -34.5 -87t-82.5 -33q-44 0 -72 28t-28 78zM274 665h593q6 110 -16 190.5t-84 131t-162 50.5q-134 0 -221.5 -91.5t-109.5 -280.5zM722 1514q0 51 35.5 85t81.5 34q50 0 74.5 -28t24.5 -77q0 -54 -34.5 -87t-82.5 -33q-43 0 -71 28.5t-28 77.5z" />
<glyph unicode="&#xec;" horiz-adv-x="454" d="M-2 1431l83 73q62 -83 234 -282l-59 -48q-52 36 -135.5 117.5t-122.5 139.5zM162 0v1044h129v-1044h-129z" />
<glyph unicode="&#xed;" horiz-adv-x="515" d="M91 1206q172 188 249 294l89 -76q-36 -54 -129.5 -144.5t-145.5 -124.5zM162 0v1044h129v-1044h-129z" />
<glyph unicode="&#xee;" horiz-adv-x="513" d="M-22 1206l197 251h99l193 -250l-68 -32l-175 190l-182 -190zM172 0v1044h129v-1044h-129z" />
<glyph unicode="&#xef;" horiz-adv-x="458" d="M8 1324q0 36 25 60t57 24q68 0 68 -74q0 -38 -23.5 -62t-56.5 -24q-30 0 -50 20t-20 56zM162 0v1044h129v-1044h-129zM290 1324q0 36 25 60t57 24q35 0 52 -20t17 -54q0 -38 -23.5 -62t-57.5 -24q-30 0 -50 20t-20 56z" />
<glyph unicode="&#xf0;" horiz-adv-x="1224" d="M109 557q0 279 141.5 439t369.5 159q157 -2 264 -112q-44 131 -125 244t-188 196l-141 -160l-89 70l141 153q-129 82 -237 116l40 97q136 -42 278 -125q24 26 57.5 65.5t55.5 66.5l22 27l90 -69q-79 -92 -135 -151l9 -6q222 -148 338 -397.5t116 -557.5 q0 -312 -135.5 -474t-364.5 -165q-231 -4 -369 154.5t-138 429.5zM275 563q0 -223 96 -349t251 -126q66 0 123.5 30t103.5 88t73 153t27 215q0 197 -9 277q-22 77 -106 128t-208 51q-165 0 -258 -126.5t-93 -340.5z" />
<glyph unicode="&#xf1;" horiz-adv-x="1136" d="M154 1044h125v-186h4q15 33 30.5 58.5t44 55.5t62.5 50t86 33.5t115 13.5q94 0 164 -30t111 -85t61 -126t20 -160v-668h-129v635q0 323 -248 323q-84 0 -146.5 -34t-96.5 -91.5t-50 -121t-16 -133.5v-578h-129v799q0 162 -8 245zM185 1362q34 70 105 123t154 53 q46 0 83.5 -15t62 -37t46.5 -44t50.5 -37t61.5 -15q104 0 192 104l67 -56q-38 -74 -106.5 -124.5t-152.5 -50.5q-49 0 -87 15.5t-62 37.5t-46 43.5t-49.5 37t-61.5 15.5q-101 0 -191 -104z" />
<glyph unicode="&#xf2;" horiz-adv-x="1142" d="M82 522q0 110 29.5 206.5t87 173.5t153 122t217.5 45t218 -45t153.5 -122t87 -173.5t29.5 -206.5q0 -87 -18 -166t-57 -149t-95 -121.5t-137.5 -81t-180.5 -29.5q-122 0 -217.5 45t-153 122.5t-87 174t-29.5 205.5zM223 522q0 -122 39 -219.5t118.5 -157t188.5 -59.5 q163 0 254.5 123.5t91.5 312.5q0 123 -38.5 220.5t-118 156.5t-189.5 59q-163 0 -254.5 -123.5t-91.5 -312.5zM249 1598l120 103q93 -121 337 -398l-85 -68q-75 50 -194.5 165t-177.5 198z" />
<glyph unicode="&#xf3;" horiz-adv-x="1142" d="M82 522q0 110 29.5 206.5t87 173.5t153 122t217.5 45t218 -45t153.5 -122t87 -173.5t29.5 -206.5q0 -87 -18 -166t-57 -149t-95 -121.5t-137.5 -81t-180.5 -29.5q-122 0 -217.5 45t-153 122.5t-87 174t-29.5 205.5zM223 522q0 -122 39 -219.5t118.5 -157t188.5 -59.5 q163 0 254.5 123.5t91.5 312.5q0 123 -38.5 220.5t-118 156.5t-189.5 59q-163 0 -254.5 -123.5t-91.5 -312.5zM399 1273q233 254 337 398l120 -103q-49 -73 -175.5 -196t-195.5 -167z" />
<glyph unicode="&#xf4;" horiz-adv-x="1158" d="M82 522q0 110 29.5 206.5t87 173.5t153 122t217.5 45t218 -45t153.5 -122t87 -173.5t29.5 -206.5q0 -87 -18 -166t-57 -149t-95 -121.5t-137.5 -81t-180.5 -29.5q-122 0 -217.5 45t-153 122.5t-87 174t-29.5 205.5zM223 522q0 -122 39 -219.5t118.5 -157t188.5 -59.5 q163 0 254.5 123.5t91.5 312.5q0 123 -38.5 220.5t-118 156.5t-189.5 59q-163 0 -254.5 -123.5t-91.5 -312.5zM274 1296l242 278h122l238 -277l-84 -36l-215 211l-224 -211z" />
<glyph unicode="&#xf5;" horiz-adv-x="1142" d="M82 522q0 110 29.5 206.5t87 173.5t153 122t217.5 45t218 -45t153.5 -122t87 -173.5t29.5 -206.5q0 -87 -18 -166t-57 -149t-95 -121.5t-137.5 -81t-180.5 -29.5q-122 0 -217.5 45t-153 122.5t-87 174t-29.5 205.5zM208 1334q30 64 92 112t135 48q41 0 73.5 -14t54 -34 t41 -39.5t44.5 -33.5t54 -14q92 0 168 95l59 -51q-33 -68 -93 -113.5t-134 -45.5q-43 0 -76.5 14t-54.5 34t-40.5 39.5t-44 33.5t-53.5 14q-89 0 -167 -94zM223 522q0 -122 39 -219.5t118.5 -157t188.5 -59.5q163 0 254.5 123.5t91.5 312.5q0 123 -38.5 220.5t-118 156.5 t-189.5 59q-163 0 -254.5 -123.5t-91.5 -312.5z" />
<glyph unicode="&#xf6;" horiz-adv-x="1150" d="M82 522q0 110 29.5 206.5t87 173.5t153 122t217.5 45t218 -45t153.5 -122t87 -173.5t29.5 -206.5q0 -87 -18 -166t-57 -149t-95 -121.5t-137.5 -81t-180.5 -29.5q-122 0 -217.5 45t-153 122.5t-87 174t-29.5 205.5zM223 522q0 -122 39 -219.5t118.5 -157t188.5 -59.5 q163 0 254.5 123.5t91.5 312.5q0 123 -38.5 220.5t-118 156.5t-189.5 59q-163 0 -254.5 -123.5t-91.5 -312.5zM290 1418q0 43 29.5 71.5t67.5 28.5q81 0 81 -89q0 -45 -28 -73t-68 -28q-36 0 -59 24t-23 66zM659 1418q0 43 29 71.5t67 28.5q41 0 61 -24t20 -65 q0 -45 -28 -73t-68 -28q-35 0 -58 24t-23 66z" />
<glyph unicode="&#xf7;" horiz-adv-x="1184" d="M232 709v130h929v-130h-929zM586 373q0 55 37.5 91.5t86.5 36.5q53 0 80.5 -30.5t27.5 -81.5q0 -57 -36.5 -92.5t-88.5 -35.5q-45 0 -76 30t-31 82zM587 1170q0 55 37.5 92t86.5 37q53 0 80.5 -31t27.5 -82q0 -57 -37 -92.5t-88 -35.5q-46 0 -76.5 30t-30.5 82z" />
<glyph unicode="&#xf8;" horiz-adv-x="1239" d="M103 591q4 266 149.5 415.5t371.5 149.5q67 0 128 -14l65 194l96 -28l-67 -198q141 -66 209.5 -214.5t66.5 -341.5q-4 -266 -148 -418t-371 -152q-68 0 -130 14l-65 -193l-96 27l66 198q-142 67 -209.5 216.5t-65.5 344.5zM273 589q-1 -139 37 -250.5t114 -172.5l287 855 q-37 12 -90 14q-163 2 -255 -115.5t-93 -330.5zM513 117q44 -14 94 -14q162 -2 253 120.5t92 337.5q0 138 -38 246.5t-113 167.5z" />
<glyph unicode="&#xf9;" horiz-adv-x="1165" d="M152 377v667h129v-634q0 -324 248 -324q84 0 146.5 34.5t96.5 91.5t50 121t16 134v577h129v-798q0 -162 8 -246h-125v186h-4q-19 -42 -41.5 -74t-61 -66t-98.5 -52.5t-137 -18.5q-94 0 -164 30t-111 85t-61 126.5t-20 160.5zM292 1518l120 103q93 -121 337 -398l-85 -68 q-75 50 -194.5 165t-177.5 198z" />
<glyph unicode="&#xfa;" horiz-adv-x="1177" d="M152 377v667h129v-634q0 -324 248 -324q84 0 146.5 34.5t96.5 91.5t50 121t16 134v577h129v-798q0 -162 8 -246h-125v186h-4q-19 -42 -41.5 -74t-61 -66t-98.5 -52.5t-137 -18.5q-94 0 -164 30t-111 85t-61 126.5t-20 160.5zM441 1263q233 254 337 398l120 -103 q-49 -73 -175.5 -196t-195.5 -167z" />
<glyph unicode="&#xfb;" horiz-adv-x="1126" d="M152 377v667h129v-634q0 -324 248 -324q84 0 146.5 34.5t96.5 91.5t50 121t16 134v577h129v-798q0 -162 8 -246h-125v186h-4q-19 -42 -41.5 -74t-61 -66t-98.5 -52.5t-137 -18.5q-94 0 -164 30t-111 85t-61 126.5t-20 160.5zM212 1245l297 347h149l291 -346l-103 -44 l-263 263l-274 -263z" />
<glyph unicode="&#xfc;" horiz-adv-x="1158" d="M152 377v667h129v-634q0 -324 248 -324q84 0 146.5 34.5t96.5 91.5t50 121t16 134v577h129v-798q0 -162 8 -246h-125v186h-4q-19 -42 -41.5 -74t-61 -66t-98.5 -52.5t-137 -18.5q-94 0 -164 30t-111 85t-61 126.5t-20 160.5zM239 1414q0 51 36 85t82 34q99 0 99 -105 q0 -54 -34.5 -87t-82.5 -33q-43 0 -71.5 28t-28.5 78zM691 1414q0 51 35.5 85t81.5 34q50 0 74.5 -28t24.5 -77q0 -54 -34.5 -87t-82.5 -33q-43 0 -71 28.5t-28 77.5z" />
<glyph unicode="&#xfd;" horiz-adv-x="1119" d="M56 1140h178l274 -782l76 -224l66 224l237 782h180l-392 -1169q-70 -210 -150.5 -322.5t-190.5 -142.5q-47 -13 -103 -13q-26 0 -64.5 4.5t-46.5 9.5v137q38 -12 99 -12q220 0 314 368h-49zM461 1383q233 254 337 398l120 -103q-49 -73 -175.5 -196t-195.5 -167z" />
<glyph unicode="&#xfe;" horiz-adv-x="1227" d="M188 -507v2168h167v-475l-7 -170q145 140 347 140q95 0 175.5 -34.5t142.5 -100t97 -171t35 -238.5q0 -280 -159 -454.5t-415 -174.5q-105 0 -226 27l10 -161v-356h-167zM355 155q29 -22 92.5 -35.5t141.5 -13.5q77 0 145.5 30.5t122 89t85.5 152.5t33 212 q2 212 -81.5 323.5t-243.5 111.5q-87 0 -166 -35t-129 -81v-754z" />
<glyph unicode="&#xff;" horiz-adv-x="1115" d="M56 1140h178l274 -782l76 -224l66 224l237 782h180l-392 -1169q-70 -210 -150.5 -322.5t-190.5 -142.5q-47 -13 -103 -13q-26 0 -64.5 4.5t-46.5 9.5v137q38 -12 99 -12q220 0 314 368h-49zM248 1514q0 51 36 85t82 34q99 0 99 -105q0 -54 -34.5 -87t-82.5 -33 q-44 0 -72 28t-28 78zM700 1514q0 51 35.5 85t81.5 34q50 0 74.5 -28t24.5 -77q0 -54 -34.5 -87t-82.5 -33q-43 0 -71 28.5t-28 77.5z" />
<glyph unicode="&#x152;" horiz-adv-x="1998" d="M110 764q3 185 57 331t148.5 241t221 146t279.5 56q157 5 278 -66v50h823v-131h-654v-539h485v-132h-485v-586h728v-134h-897v74q-130 -86 -308 -90q-206 -4 -362.5 96.5t-237 279t-76.5 404.5zM280 755q0 -104 20.5 -199t63 -176t102.5 -141t144 -93.5t183 -33.5 q179 0 301 106v1105q-110 86 -282 86q-82 0 -158.5 -24t-144.5 -76t-119 -127t-80.5 -185t-29.5 -242z" />
<glyph unicode="&#x153;" horiz-adv-x="1963" d="M105 591q4 265 149.5 415t371.5 150q289 0 415 -236q64 111 172 172.5t252 63.5q181 2 293 -115.5t116 -312.5q2 -118 -8 -175h-748q0 -7 0.5 -20t0.5 -20q4 -107 32.5 -186t79 -125.5t115.5 -68.5t146 -22q77 0 172.5 23t140.5 52l33 -97q-56 -46 -167.5 -75.5 t-219.5 -29.5q-295 0 -421 231q-67 -112 -178 -171.5t-250 -59.5q-131 0 -230 49t-156.5 134.5t-85 192t-25.5 231.5zM275 589q-1 -135 33 -241.5t110.5 -175t188.5 -69.5q163 -2 255 120.5t93 337.5q1 135 -34 239t-112 169t-187 66q-161 2 -253.5 -115.5t-93.5 -330.5z M1125 665h592q4 81 -8 146.5t-41.5 117t-84 80t-129.5 28.5q-133 0 -220.5 -91.5t-108.5 -280.5z" />
<glyph unicode="&#x178;" horiz-adv-x="1234" d="M31 1522h181l374 -701l51 -115l44 115l359 701h179l-499 -935v-587h-172v584zM294 1798q0 54 36.5 89t84.5 35q52 0 78 -29t26 -80q0 -56 -35 -89.5t-86 -33.5q-45 0 -74.5 28.5t-29.5 79.5zM773 1798q0 54 36.5 89t84.5 35q52 0 78.5 -29t26.5 -80q0 -56 -35.5 -89.5 t-85.5 -33.5q-45 0 -75 28.5t-30 79.5z" />
<glyph unicode="&#x2c6;" horiz-adv-x="608" d="M-47 1171l190 295h168l191 -295h-94l-181 209l-180 -209h-94z" />
<glyph unicode="&#x2dc;" horiz-adv-x="907" d="M48 1462q34 70 105 123t154 53q46 0 83.5 -15t62 -37t46.5 -44t50.5 -37t61.5 -15q104 0 192 104l67 -56q-38 -74 -106.5 -124.5t-152.5 -50.5q-49 0 -87 15.5t-62 37.5t-46 43.5t-49.5 37t-61.5 15.5q-101 0 -191 -104z" />
<glyph unicode="&#x2000;" horiz-adv-x="991" />
<glyph unicode="&#x2001;" horiz-adv-x="1982" />
<glyph unicode="&#x2002;" horiz-adv-x="991" />
<glyph unicode="&#x2003;" horiz-adv-x="1982" />
<glyph unicode="&#x2004;" horiz-adv-x="660" />
<glyph unicode="&#x2005;" horiz-adv-x="495" />
<glyph unicode="&#x2006;" horiz-adv-x="330" />
<glyph unicode="&#x2007;" horiz-adv-x="330" />
<glyph unicode="&#x2008;" horiz-adv-x="247" />
<glyph unicode="&#x2009;" horiz-adv-x="396" />
<glyph unicode="&#x200a;" horiz-adv-x="110" />
<glyph unicode="&#x2010;" horiz-adv-x="1229" d="M157 705v135h856v-135h-856z" />
<glyph unicode="&#x2011;" horiz-adv-x="1229" d="M157 705v135h856v-135h-856z" />
<glyph unicode="&#x2012;" horiz-adv-x="1229" d="M157 705v135h856v-135h-856z" />
<glyph unicode="&#x2013;" horiz-adv-x="1578" d="M240 705v135h1212v-135h-1212z" />
<glyph unicode="&#x2014;" horiz-adv-x="2229" d="M240 705v135h1863v-135h-1863z" />
<glyph unicode="&#x2018;" horiz-adv-x="528" d="M147 983l158 447h117l-121 -447h-154z" />
<glyph unicode="&#x2019;" horiz-adv-x="528" d="M147 983l121 447h154l-158 -447h-117z" />
<glyph unicode="&#x201a;" horiz-adv-x="529" d="M147 -274l121 446h154l-158 -446h-117z" />
<glyph unicode="&#x201c;" horiz-adv-x="993" d="M252 983l158 447h116l-120 -447h-154zM612 983l158 447h117l-121 -447h-154z" />
<glyph unicode="&#x201d;" horiz-adv-x="993" d="M252 983l121 447h153l-157 -447h-117zM612 983l121 447h154l-158 -447h-117z" />
<glyph unicode="&#x201e;" horiz-adv-x="994" d="M252 -274l121 446h153l-155 -446h-119zM612 -274l121 446h154l-158 -446h-117z" />
<glyph unicode="&#x2022;" horiz-adv-x="716" d="M255 724q4 75 56.5 126.5t122.5 51.5q71 0 118.5 -50.5t44.5 -123.5q-4 -74 -56.5 -127t-122.5 -53t-118.5 52.5t-44.5 123.5z" />
<glyph unicode="&#x2026;" horiz-adv-x="1908" d="M260 0v172h166v-172h-166zM942 0v172h166v-172h-166zM1624 0v172h166v-172h-166z" />
<glyph unicode="&#x202f;" horiz-adv-x="396" />
<glyph unicode="&#x2039;" horiz-adv-x="1034" d="M245 542v141l653 448l44 -125l-534 -391l534 -388l-44 -121z" />
<glyph unicode="&#x203a;" horiz-adv-x="1034" d="M262 227l534 388l-534 391l44 125l653 -448v-141l-653 -436z" />
<glyph unicode="&#x205f;" horiz-adv-x="495" />
<glyph unicode="&#x20ac;" horiz-adv-x="1391" d="M119 527v110h194q-2 54 -2 83q0 94 12 179h-173v109h193q61 247 225 385t405 145q91 3 155.5 -6t138 -33t75.5 -24l-41 -134q-64 35 -140 52.5t-192 17.5q-163 1 -284 -101.5t-167 -301.5h587v-109h-605q-7 -59 -7 -132q0 -60 5 -130h574v-110h-562q70 -432 430 -432 q221 0 385 92l46 -126q-25 -4 -67.5 -19.5t-83 -30.5t-121.5 -27t-180 -12q-250 0 -401.5 148t-192.5 407h-206z" />
<glyph unicode="&#x2122;" horiz-adv-x="2127" d="M189 1428v118h685v-118l-276 2v-663h-140v663zM1033 767l37 779h221l188 -474l40 -139l33 138l177 475h208l67 -779h-136l-35 520l-9 169l-48 -136l-211 -558h-91l-223 542l-62 153l-3 -152l-23 -538h-130z" />
<glyph unicode="&#x25fc;" horiz-adv-x="1060" d="M0 0v1060h1060v-1060h-1060z" />
<glyph unicode="&#xfb01;" horiz-adv-x="1293" d="M76 1014v92l196 34v92q0 98 23.5 176.5t62 128.5t90.5 83.5t105.5 47.5t110.5 14q81 0 136 -21v-133q-55 20 -159 20q-93 0 -147.5 -72.5t-54.5 -207.5v-128h303v-126h-303v-1014h-167v1014h-196zM984 1502q0 54 37.5 91t85.5 37q52 0 79.5 -31t27.5 -82q0 -57 -36.5 -93 t-86.5 -36q-45 0 -76 31t-31 83zM1012 0v1139h166v-1139h-166z" />
<glyph unicode="&#xfb02;" horiz-adv-x="1308" d="M76 1014v92l196 34v92q0 98 23.5 176.5t62 128.5t90.5 83.5t105.5 47.5t110.5 14q81 0 136 -21v-133q-55 20 -159 20q-93 0 -147.5 -72.5t-54.5 -207.5v-128h303v-126h-303v-1014h-167v1014h-196zM1015 0v1664h167v-1664h-167z" />
<glyph unicode="&#xfb03;" horiz-adv-x="2094" d="M76 1014v92l196 34v92q0 98 23.5 176.5t62 128.5t90.5 83.5t105.5 47.5t110.5 14q81 0 136 -21v-133q-55 20 -159 20q-93 0 -147.5 -72.5t-54.5 -207.5v-128h303v-126h-303v-1014h-167v1014h-196zM877 1014v92l196 34v92q0 98 23.5 176.5t62 128.5t90.5 83.5t105.5 47.5 t110.5 14q81 0 136 -21v-133q-55 20 -159 20q-93 0 -147.5 -72.5t-54.5 -207.5v-128h303v-126h-303v-1014h-167v1014h-196zM1785 1502q0 54 37.5 91t85.5 37q52 0 79.5 -31t27.5 -82q0 -57 -36.5 -93t-86.5 -36q-45 0 -76 31t-31 83zM1813 0v1139h166v-1139h-166z" />
<glyph unicode="&#xfb04;" horiz-adv-x="2109" d="M76 1014v92l196 34v92q0 98 23.5 176.5t62 128.5t90.5 83.5t105.5 47.5t110.5 14q81 0 136 -21v-133q-55 20 -159 20q-93 0 -147.5 -72.5t-54.5 -207.5v-128h303v-126h-303v-1014h-167v1014h-196zM877 1014v92l196 34v92q0 98 23.5 176.5t62 128.5t90.5 83.5t105.5 47.5 t110.5 14q81 0 136 -21v-133q-55 20 -159 20q-93 0 -147.5 -72.5t-54.5 -207.5v-128h303v-126h-303v-1014h-167v1014h-196zM1816 0v1664h167v-1664h-167z" />
</font>
</defs>
</svg>
